<?xml version="1.0" encoding="utf-8"?>
<!-- Generator: Adobe Illustrator 21.0.0, SVG Export Plug-In . SVG Version: 6.00 Build 0)  -->
<svg version="1.1" id="Слой_1" xmlns="http://www.w3.org/2000/svg" xmlns:xlink="http://www.w3.org/1999/xlink" x="0px" y="0px"
	 viewBox="0 0 412 330" style="enable-background:new 0 0 412 330;" xml:space="preserve">
<style type="text/css">
	.st0{display:none;fill:#B3E0FF;}
	.st1{opacity:0.4;}
	.st2{fill:#FFFFFF;}
	.st3{opacity:0.2;fill:#FFFFFF;}
	.st4{opacity:0.5;fill:#FFFFFF;}
	.st5{display:none;}
	.st6{display:inline;fill:#FFFFFF;}
	.st7{display:inline;fill:#FF2C9C;}
	.st8{display:inline;}
	.st9{display:inline;fill:#396CAA;}
	.st10{display:none;fill:#FFFFFF;}
	.st11{display:none;opacity:0.4;fill:#FFFFFF;}
	.st12{fill:#7DC3EA;}
	.st13{fill:url(#SVGID_1_);}
	.st14{fill:url(#SVGID_2_);}
	.st15{fill:url(#SVGID_3_);}
	.st16{fill:url(#SVGID_4_);}
	.st17{fill:url(#SVGID_5_);}
	.st18{fill:url(#SVGID_6_);}
	.st19{fill:url(#SVGID_7_);}
	.st20{fill:url(#SVGID_8_);}
	.st21{fill:url(#SVGID_9_);}
	.st22{fill:url(#SVGID_10_);}
	.st23{fill:url(#SVGID_11_);}
	.st24{fill:url(#SVGID_12_);}
	.st25{fill:url(#SVGID_13_);}
	.st26{fill:url(#SVGID_14_);}
	.st27{fill:#5793CE;}
	.st28{fill:url(#SVGID_15_);}
	.st29{fill:url(#SVGID_16_);}
	.st30{fill:#173D7A;}
	.st31{fill:#396CAA;}
	.st32{opacity:0.3;fill:#06033E;}
	.st33{fill:#D4ECFF;}
	.st34{fill:#FF2C9C;}
	.st35{opacity:0.5;fill:#173D7A;}
	.st36{fill:url(#SVGID_17_);}
	.st37{fill:url(#SVGID_18_);}
	.st38{fill:url(#SVGID_19_);}
	.st39{fill:url(#SVGID_20_);}
	.st40{fill:url(#SVGID_21_);}
	.st41{fill:url(#SVGID_22_);}
</style>
<rect x="-165" y="-35" class="st0" width="600" height="400"/>
<g class="st1">
	<path class="st2" d="M377,93.9l-31.3-18.1L377,57.8l0.3,0.2l31,17.9L377,93.9z M347.9,75.8L377,92.6L406,75.8L377,59L347.9,75.8z"
		/>
	<path class="st2" d="M316.6,93.9l-31.3-18.1l31.3-18.1l31.3,18.1L316.6,93.9z M287.5,75.8l29.1,16.8l29.1-16.8L316.6,59L287.5,75.8
		z"/>
	<path class="st2" d="M346.8,111.3l-0.3-0.2l-31-17.9l31.3-18.1l31.3,18.1L346.8,111.3z M317.7,93.2l29.1,16.8l29.1-16.8l-29.1-16.8
		L317.7,93.2z"/>
	<path class="st2" d="M377,128.7l-0.3-0.2l-31-17.9L377,92.6l0.3,0.2l31,17.9L377,128.7z M347.9,110.7l29.1,16.8l29.1-16.8L377,93.9
		L347.9,110.7z"/>
	<path class="st2" d="M256.3,93.9l-0.3-0.2l-31-17.9l31.3-18.1l0.3,0.2l31,17.9L256.3,93.9z M227.2,75.8l29.1,16.8l29.1-16.8
		L256.3,59L227.2,75.8z"/>
	<path class="st2" d="M286.4,111.3l-31.3-18.1l31.3-18.1l31.3,18.1L286.4,111.3z M257.4,93.2l29.1,16.8l29.1-16.8l-29.1-16.8
		L257.4,93.2z"/>
	<path class="st2" d="M316.6,128.7l-0.3-0.2l-31-17.9l31.3-18.1l0.3,0.2l31,17.9L316.6,128.7z M287.5,110.7l29.1,16.8l29.1-16.8
		l-29.1-16.8L287.5,110.7z"/>
	<path class="st2" d="M346.8,146.2l-0.3-0.2l-31-17.9l31.3-18.1l0.3,0.2l31,17.9L346.8,146.2z M317.7,128.1l29.1,16.8l29.1-16.8
		l-29.1-16.8L317.7,128.1z"/>
	<path class="st2" d="M377,163.6l-0.3-0.2l-31-17.9l31.3-18.1l31.3,18.1L377,163.6z M347.9,145.5l29.1,16.8l29.1-16.8L377,128.7
		L347.9,145.5z"/>
	<path class="st2" d="M195.9,93.9l-0.3-0.2l-31-17.9l31.3-18.1l0.3,0.2l31,17.9L195.9,93.9z M166.8,75.8l29.1,16.8L225,75.8
		L195.9,59L166.8,75.8z"/>
	<path class="st2" d="M226.1,111.3l-0.3-0.2l-31-17.9l31.3-18.1l0.3,0.2l31,17.9L226.1,111.3z M197,93.2l29.1,16.8l29.1-16.8
		l-29.1-16.8L197,93.2z"/>
	<path class="st2" d="M256.3,128.7l-0.3-0.2l-31-17.9l31.3-18.1l31.3,18.1L256.3,128.7z M227.2,110.7l29.1,16.8l29.1-16.8
		l-29.1-16.8L227.2,110.7z"/>
	<path class="st2" d="M286.4,146.2l-31.3-18.1l31.3-18.1l0.3,0.2l31,17.9L286.4,146.2z M257.4,128.1l29.1,16.8l29.1-16.8l-29.1-16.8
		L257.4,128.1z"/>
	<path class="st2" d="M316.6,163.6l-0.3-0.2l-31-17.9l31.3-18.1l0.3,0.2l31,17.9L316.6,163.6z M287.5,145.5l29.1,16.8l29.1-16.8
		l-29.1-16.8L287.5,145.5z"/>
	<path class="st2" d="M346.8,181l-0.3-0.2l-31-17.9l31.3-18.1l0.3,0.2l31,17.9L346.8,181z M317.7,162.9l29.1,16.8l29.1-16.8
		l-29.1-16.8L317.7,162.9z"/>
	<path class="st2" d="M377,198.4l-0.3-0.2l-31-17.9l31.3-18.1l0.3,0.2l31,17.9L377,198.4z M347.9,180.4l29.1,16.8l29.1-16.8
		L377,163.6L347.9,180.4z"/>
	<path class="st2" d="M135.5,93.9l-0.3-0.2l-31-17.9l31.3-18.1l0.3,0.2l31,17.9L135.5,93.9z M106.5,75.8l29.1,16.8l29.1-16.8
		L135.5,59L106.5,75.8z"/>
	<path class="st2" d="M165.7,111.3l-31.3-18.1l31.3-18.1l0.3,0.2l31,17.9L165.7,111.3z M136.7,93.2l29.1,16.8l29.1-16.8l-29.1-16.8
		L136.7,93.2z"/>
	<path class="st2" d="M195.9,128.7l-0.3-0.2l-31-17.9l31.3-18.1l0.3,0.2l31,17.9L195.9,128.7z M166.8,110.7l29.1,16.8l29.1-16.8
		l-29.1-16.8L166.8,110.7z"/>
	<path class="st2" d="M226.1,146.1l-0.3-0.2l-31-17.9l31.3-18.1l0.3,0.2l31,17.9L226.1,146.1z M197,128.1l29.1,16.8l29.1-16.8
		l-29.1-16.8L197,128.1z"/>
	<path class="st2" d="M256.3,163.6L225,145.5l31.3-18.1l31.3,18.1L256.3,163.6z M227.2,145.5l29.1,16.8l29.1-16.8l-29.1-16.8
		L227.2,145.5z"/>
	<path class="st2" d="M286.4,181l-0.3-0.2l-31-17.9l31.3-18.1l0.3,0.2l31,17.9L286.4,181z M257.4,162.9l29.1,16.8l29.1-16.8
		l-29.1-16.8L257.4,162.9z"/>
	<path class="st2" d="M316.6,198.4l-31.3-18.1l31.3-18.1l0.3,0.2l31,17.9L316.6,198.4z M287.5,180.4l29.1,16.8l29.1-16.8l-29.1-16.8
		L287.5,180.4z"/>
	<path class="st2" d="M346.8,215.8l-0.3-0.2l-31-17.9l31.3-18.1l0.3,0.2l31,17.9L346.8,215.8z M317.7,197.8l29.1,16.8l29.1-16.8
		L346.8,181L317.7,197.8z"/>
	<path class="st2" d="M377,233.3l-0.3-0.2l-31-17.9l31.3-18.1l0.3,0.2l31,17.9L377,233.3z M347.9,215.2L377,232l29.1-16.8L377,198.4
		L347.9,215.2z"/>
	<path class="st2" d="M75.2,93.9l-0.3-0.2l-31-17.9l31.3-18.1l0.3,0.2l31,17.9L75.2,93.9z M46.1,75.8l29.1,16.8l29.1-16.8L75.2,59
		L46.1,75.8z"/>
	<path class="st2" d="M105.4,111.3l-0.3-0.2l-31-17.9l31.3-18.1l0.3,0.2l31,17.9L105.4,111.3z M76.3,93.2l29.1,16.8l29.1-16.8
		l-29.1-16.8L76.3,93.2z"/>
	<path class="st2" d="M135.6,128.7l-0.3-0.2l-31-17.9l31.3-18.1l31.3,18.1L135.6,128.7z M106.5,110.7l29.1,16.8l29.1-16.8
		l-29.1-16.8L106.5,110.7z"/>
	<path class="st2" d="M165.7,146.1l-31.3-18.1l31.3-18.1l0.3,0.2l31,17.9L165.7,146.1z M136.7,128.1l29.1,16.8l29.1-16.8l-29.1-16.8
		L136.7,128.1z"/>
	<path class="st2" d="M195.9,163.6l-0.3-0.2l-31-17.9l31.3-18.1l0.3,0.2l31,17.9L195.9,163.6z M166.8,145.5l29.1,16.8l29.1-16.8
		l-29.1-16.8L166.8,145.5z"/>
	<path class="st2" d="M226.1,181l-31.3-18.1l31.3-18.1l31.3,18.1L226.1,181z M197,162.9l29.1,16.8l29.1-16.8l-29.1-16.8L197,162.9z"
		/>
	<path class="st2" d="M256.3,198.4l-0.3-0.2l-31-17.9l31.3-18.1l0.3,0.2l31,17.9L256.3,198.4z M227.2,180.4l29.1,16.8l29.1-16.8
		l-29.1-16.8L227.2,180.4z"/>
	<path class="st2" d="M286.4,215.8l-0.3-0.2l-31-17.9l31.3-18.1l31.3,18.1L286.4,215.8z M257.4,197.8l29.1,16.8l29.1-16.8L286.4,181
		L257.4,197.8z"/>
	<path class="st2" d="M316.6,233.3l-31.3-18.1l31.3-18.1l0.3,0.2l31,17.9L316.6,233.3z M287.5,215.2l29.1,16.8l29.1-16.8l-29.1-16.8
		L287.5,215.2z"/>
	<path class="st2" d="M346.8,250.7l-0.3-0.2l-31-17.9l31.3-18.1l0.3,0.2l31,17.9L346.8,250.7z M317.7,232.6l29.1,16.8l29.1-16.8
		l-29.1-16.8L317.7,232.6z"/>
	<path class="st2" d="M377,268.1l-0.3-0.2l-31-17.9L377,232l0.3,0.2l31,17.9L377,268.1z M347.9,250l29.1,16.8L406,250L377,233.3
		L347.9,250z"/>
	<path class="st2" d="M75.2,128.7l-0.3-0.2l-31-17.9l31.3-18.1l0.3,0.2l31,17.9L75.2,128.7z M46.1,110.7l29.1,16.8l29.1-16.8
		L75.2,93.9L46.1,110.7z"/>
	<path class="st2" d="M105.4,146.1l-0.3-0.2l-31-17.9l31.3-18.1l0.3,0.2l31,17.9L105.4,146.1z M76.3,128.1l29.1,16.8l29.1-16.8
		l-29.1-16.8L76.3,128.1z"/>
	<path class="st2" d="M135.6,163.6l-0.3-0.2l-31-17.9l31.3-18.1l31.3,18.1L135.6,163.6z M106.5,145.5l29.1,16.8l29.1-16.8
		l-29.1-16.8L106.5,145.5z"/>
	<path class="st2" d="M165.7,181l-0.3-0.2l-31-17.9l31.3-18.1l0.3,0.2l31,17.9L165.7,181z M136.7,162.9l29.1,16.8l29.1-16.8
		l-29.1-16.8L136.7,162.9z"/>
	<path class="st2" d="M195.9,198.4l-31.3-18.1l31.3-18.1l31.3,18.1L195.9,198.4z M166.8,180.4l29.1,16.8l29.1-16.8l-29.1-16.8
		L166.8,180.4z"/>
	<path class="st2" d="M226.1,215.8l-31.3-18.1l31.3-18.1l0.3,0.2l31,17.9L226.1,215.8z M197,197.8l29.1,16.8l29.1-16.8L226.1,181
		L197,197.8z"/>
	<path class="st2" d="M256.3,233.3l-0.3-0.2l-31-17.9l31.3-18.1l0.3,0.2l31,17.9L256.3,233.3z M227.2,215.2l29.1,16.8l29.1-16.8
		l-29.1-16.8L227.2,215.2z"/>
	<path class="st2" d="M286.4,250.7l-0.3-0.2l-31-17.9l31.3-18.1l31.3,18.1L286.4,250.7z M257.4,232.6l29.1,16.8l29.1-16.8
		l-29.1-16.8L257.4,232.6z"/>
	<path class="st2" d="M316.6,268.1l-0.3-0.2l-31-17.9l31.3-18.1l0.3,0.2l31,17.9L316.6,268.1z M287.5,250l29.1,16.8l29.1-16.8
		l-29.1-16.8L287.5,250z"/>
	<path class="st2" d="M346.8,285.5l-31.3-18.1l31.3-18.1l0.3,0.2l31,17.9L346.8,285.5z M317.7,267.5l29.1,16.8l29.1-16.8l-29.1-16.8
		L317.7,267.5z"/>
	<path class="st2" d="M377,303l-0.3-0.2l-31-17.9l31.3-18.1l0.3,0.2l31,17.9L377,303z M347.9,284.9l29.1,16.8l29.1-16.8L377,268.1
		L347.9,284.9z"/>
	<path class="st2" d="M75.2,163.6l-31.3-18.1l31.3-18.1l0.3,0.2l31,17.9L75.2,163.6z M46.1,145.5l29.1,16.8l29.1-16.8l-29.1-16.8
		L46.1,145.5z"/>
	<path class="st2" d="M105.4,181l-0.3-0.2l-31-17.9l31.3-18.1l0.3,0.2l31,17.9L105.4,181z M76.3,162.9l29.1,16.8l29.1-16.8
		l-29.1-16.8L76.3,162.9z"/>
	<path class="st2" d="M135.6,198.4l-0.3-0.2l-31-17.9l31.3-18.1l0.3,0.2l31,17.9L135.6,198.4z M106.5,180.4l29.1,16.8l29.1-16.8
		l-29.1-16.8L106.5,180.4z"/>
	<path class="st2" d="M165.7,215.8l-0.3-0.2l-31-17.9l31.3-18.1l31.3,18.1L165.7,215.8z M136.7,197.8l29.1,16.8l29.1-16.8L165.7,181
		L136.7,197.8z"/>
	<path class="st2" d="M195.9,233.3l-31.3-18.1l31.3-18.1l31.3,18.1L195.9,233.3z M166.8,215.2l29.1,16.8l29.1-16.8l-29.1-16.8
		L166.8,215.2z"/>
	<path class="st2" d="M226.1,250.7l-31.3-18.1l31.3-18.1l0.3,0.2l31,17.9L226.1,250.7z M197,232.6l29.1,16.8l29.1-16.8l-29.1-16.8
		L197,232.6z"/>
	<path class="st2" d="M256.3,268.1l-0.3-0.2L225,250l31.3-18.1l0.3,0.2l31,17.9L256.3,268.1z M227.2,250l29.1,16.8l29.1-16.8
		l-29.1-16.8L227.2,250z"/>
	<path class="st2" d="M286.4,285.5l-0.3-0.2l-31-17.9l31.3-18.1l0.3,0.2l31,17.9L286.4,285.5z M257.4,267.5l29.1,16.8l29.1-16.8
		l-29.1-16.8L257.4,267.5z"/>
	<path class="st2" d="M316.6,303l-0.3-0.2l-31-17.9l31.3-18.1l31.3,18.1L316.6,303z M287.5,284.9l29.1,16.8l29.1-16.8l-29.1-16.8
		L287.5,284.9z"/>
	<path class="st2" d="M75.2,198.4l-31.3-18.1l31.3-18.1l0.3,0.2l31,17.9L75.2,198.4z M46.1,180.4l29.1,16.8l29.1-16.8l-29.1-16.8
		L46.1,180.4z"/>
	<path class="st2" d="M105.4,215.8l-0.3-0.2l-31-17.9l31.3-18.1l0.3,0.2l31,17.9L105.4,215.8z M76.3,197.8l29.1,16.8l29.1-16.8
		L105.4,181L76.3,197.8z"/>
	<path class="st2" d="M135.6,233.3l-0.3-0.2l-31-17.9l31.3-18.1l0.3,0.2l31,17.9L135.6,233.3z M106.5,215.2l29.1,16.8l29.1-16.8
		l-29.1-16.8L106.5,215.2z"/>
	<path class="st2" d="M165.7,250.7l-31.3-18.1l31.3-18.1l31.3,18.1L165.7,250.7z M136.7,232.6l29.1,16.8l29.1-16.8l-29.1-16.8
		L136.7,232.6z"/>
	<path class="st2" d="M195.9,268.1l-0.3-0.2l-31-17.9l31.3-18.1l31.3,18.1L195.9,268.1z M166.8,250l29.1,16.8L225,250l-29.1-16.8
		L166.8,250z"/>
	<path class="st2" d="M226.1,285.5l-31.3-18.1l31.3-18.1l0.3,0.2l31,17.9L226.1,285.5z M197,267.5l29.1,16.8l29.1-16.8l-29.1-16.8
		L197,267.5z"/>
	<path class="st2" d="M256.3,303l-0.3-0.2l-31-17.9l31.3-18.1l0.3,0.2l31,17.9L256.3,303z M227.2,284.9l29.1,16.8l29.1-16.8
		l-29.1-16.8L227.2,284.9z"/>
	<path class="st2" d="M75.2,233.3l-0.3-0.2l-31-17.9l31.3-18.1l0.3,0.2l31,17.9L75.2,233.3z M46.1,215.2L75.2,232l29.1-16.8
		l-29.1-16.8L46.1,215.2z"/>
	<path class="st2" d="M105.4,250.7l-31.3-18.1l31.3-18.1l0.3,0.2l31,17.9L105.4,250.7z M76.3,232.6l29.1,16.8l29.1-16.8l-29.1-16.8
		L76.3,232.6z"/>
	<path class="st2" d="M135.6,268.1l-0.3-0.2l-31-17.9l31.3-18.1l31.3,18.1L135.6,268.1z M106.5,250l29.1,16.8l29.1-16.8l-29.1-16.8
		L106.5,250z"/>
	<path class="st2" d="M165.7,285.5l-31.3-18.1l31.3-18.1l0.3,0.2l31,17.9L165.7,285.5z M136.7,267.5l29.1,16.8l29.1-16.8l-29.1-16.8
		L136.7,267.5z"/>
	<path class="st2" d="M195.9,303l-0.3-0.2l-31-17.9l31.3-18.1l31.3,18.1L195.9,303z M166.8,284.9l29.1,16.8l29.1-16.8l-29.1-16.8
		L166.8,284.9z"/>
	<path class="st2" d="M75.2,268.1l-0.3-0.2l-31-17.9L75.2,232l31.3,18.1L75.2,268.1z M46.1,250l29.1,16.8l29.1-16.8l-29.1-16.8
		L46.1,250z"/>
	<path class="st2" d="M105.4,285.5l-0.3-0.2l-31-17.9l31.3-18.1l0.3,0.2l31,17.9L105.4,285.5z M76.3,267.5l29.1,16.8l29.1-16.8
		l-29.1-16.8L76.3,267.5z"/>
	<path class="st2" d="M135.6,303l-31.3-18.1l31.3-18.1l31.3,18.1L135.6,303z M106.5,284.9l29.1,16.8l29.1-16.8l-29.1-16.8
		L106.5,284.9z"/>
	<path class="st2" d="M75.2,303l-0.3-0.2l-31-17.9l31.3-18.1l0.3,0.2l31,17.9L75.2,303z M46.1,284.9l29.1,16.8l29.1-16.8l-29.1-16.8
		L46.1,284.9z"/>
</g>
<path class="st2" d="M44.2,209.6c-0.6,0.3-1.2,0.8-1.7,1.2c-0.2-7.7-5.8-10.7-12.6-6.8c-5.6,3.2-10.3,10.1-11.9,16.8
	c-1.4-0.2-3,0.2-4.7,1.2c-5,2.9-9,9.9-9,15.6c0,5.7,4,8.1,9,5.2l31-17.9c3.7-2.1,6.6-7.3,6.6-11.5C50.9,209.1,47.9,207.4,44.2,209.6
	z"/>
<g>
	<path class="st2" d="M284.4,256.6c0,1.9-1.3,4.1-2.9,5.1c-1.6,0.9-2.9,0.2-2.9-1.7c0-1.9,1.3-4.1,2.9-5.1
		C283.1,253.9,284.4,254.7,284.4,256.6z"/>
	<path class="st2" d="M293.9,251.1c0,1.9-1.3,4.1-2.9,5.1c-1.6,0.9-2.9,0.2-2.9-1.7c0-1.9,1.3-4.1,2.9-5.1
		C292.5,248.5,293.9,249.2,293.9,251.1z"/>
	<path class="st2" d="M303.3,245.6c0,1.9-1.3,4.1-2.9,5.1c-1.6,0.9-2.9,0.2-2.9-1.7s1.3-4.1,2.9-5.1
		C302,243,303.3,243.8,303.3,245.6z"/>
	<path class="st2" d="M312.8,240.2c0,1.9-1.3,4.1-2.9,5.1c-1.6,0.9-2.9,0.2-2.9-1.7c0-1.9,1.3-4.1,2.9-5.1
		C311.5,237.6,312.8,238.3,312.8,240.2z"/>
</g>
<g>
	<path class="st2" d="M148.1,308.7c0,1.9-1.3,4.1-2.9,5.1c-1.6,0.9-2.9,0.2-2.9-1.7c0-1.9,1.3-4.1,2.9-5.1
		C146.8,306.1,148.1,306.9,148.1,308.7z"/>
	<path class="st2" d="M156.2,304.1c0,1.9-1.3,4.1-2.9,5.1c-1.6,0.9-2.9,0.2-2.9-1.7c0-1.9,1.3-4.1,2.9-5.1
		C154.9,301.5,156.2,302.2,156.2,304.1z"/>
	<path class="st2" d="M148.1,299.4c0,1.9-1.3,4.1-2.9,5.1c-1.6,0.9-2.9,0.2-2.9-1.7c0-1.9,1.3-4.1,2.9-5.1
		C146.8,296.8,148.1,297.6,148.1,299.4z"/>
	<path class="st2" d="M156.2,294.8c0,1.9-1.3,4.1-2.9,5.1c-1.6,0.9-2.9,0.2-2.9-1.7c0-1.9,1.3-4.1,2.9-5.1
		C154.9,292.2,156.2,292.9,156.2,294.8z"/>
</g>
<g>
	<polygon class="st2" points="121.1,75.7 115.2,79.1 115.2,72.4 121.1,69 	"/>
	<polygon class="st2" points="129.2,71 123.3,74.4 123.3,67.6 129.2,64.3 	"/>
	<polygon class="st2" points="121.1,84.5 115.3,87.8 115.3,81.1 121.1,77.7 	"/>
	<polygon class="st2" points="129.2,79.8 123.3,83.2 123.3,76.5 129.2,73.1 	"/>
</g>
<path class="st3" d="M359.2,8.9c-1,0.6-2,1.4-2.9,2.5c-0.1-5.6-4.2-7.9-9.1-5c-1.6,0.9-3.1,2.3-4.4,3.8c-2.2-3.9-6.8-4.8-12.1-1.7
	c-7.5,4.3-13.5,14.8-13.5,23.4c0,0.7,0.1,1.4,0.1,2c-1.1-0.3-2.4-0.1-3.8,0.8c-3.6,2.1-6.5,7.1-6.5,11.2s2.9,5.8,6.5,3.7l45.7-26.4
	c3.4-2,6.2-6.8,6.2-10.8C365.5,8.5,362.7,6.9,359.2,8.9z"/>
<path class="st4" d="M367.4,16c-1,0.6-2,1.4-2.9,2.5c-0.1-5.6-4.2-7.9-9.1-5c-1.6,0.9-3.1,2.3-4.4,3.8c-2.2-3.9-6.8-4.8-12.1-1.7
	c-7.5,4.3-13.5,14.8-13.5,23.4c0,0.7,0.1,1.4,0.1,2c-1.1-0.3-2.4-0.1-3.8,0.8c-3.6,2.1-6.5,7.1-6.5,11.2c0,4.1,2.9,5.8,6.5,3.7
	l45.7-26.4c3.4-2,6.2-6.8,6.2-10.8S370.8,14.1,367.4,16z"/>
<path class="st2" d="M375.5,23.2c-1,0.6-2,1.4-2.9,2.5c-0.1-5.6-4.2-7.9-9.1-5c-1.6,0.9-3.1,2.3-4.4,3.8c-2.2-3.9-6.8-4.8-12.1-1.7
	c-7.5,4.3-13.5,14.8-13.5,23.4c0,0.7,0.1,1.4,0.1,2c-1.1-0.3-2.4-0.1-3.8,0.8c-3.6,2.1-6.5,7.1-6.5,11.2s2.9,5.8,6.5,3.7l45.7-26.4
	c3.4-2,6.2-6.8,6.2-10.8C381.7,22.8,378.9,21.2,375.5,23.2z"/>
<path class="st2" d="M110.4,224.6c-0.2,0-0.5-0.1-0.7-0.2c-0.4-0.3-0.7-0.7-0.7-1.2v-18.1c0-0.5,0.3-1,0.7-1.2l15.7-9
	c0.4-0.3,1-0.3,1.4,0c0.4,0.3,0.7,0.7,0.7,1.2v18.1c0,0.5-0.3,1-0.7,1.2l-15.7,9C110.9,224.5,110.6,224.6,110.4,224.6z M111.8,205.9
	v14.8l12.8-7.4v-14.8L111.8,205.9z M126,214.1L126,214.1L126,214.1z"/>
<g class="st5">
	<path class="st6" d="M-107.5,85.3V76h1.7v8.1h2.2v1.2H-107.5z"/>
	<path class="st6" d="M-100.8,85.4c-0.7,0-1.2-0.2-1.6-0.6c-0.3-0.4-0.5-1-0.5-1.7v-2.2c0-0.7,0.2-1.3,0.5-1.7
		c0.3-0.4,0.9-0.6,1.6-0.6c0.7,0,1.3,0.2,1.6,0.6c0.4,0.4,0.5,1,0.5,1.7V83c0,0.7-0.2,1.3-0.5,1.7C-99.6,85.2-100.1,85.4-100.8,85.4
		z M-100.8,84.3c0.1,0,0.2,0,0.3-0.1c0.1-0.1,0.1-0.1,0.2-0.3c0-0.1,0.1-0.2,0.1-0.3c0-0.1,0-0.3,0-0.4v-2.4c0-0.1,0-0.3,0-0.3
		c0-0.1,0-0.2,0-0.3c0-0.1-0.1-0.2-0.1-0.3c0-0.1-0.1-0.1-0.2-0.2c-0.1,0-0.2-0.1-0.3-0.1c-0.1,0-0.2,0-0.3,0.1
		c-0.1,0.1-0.1,0.1-0.2,0.3c0,0.1-0.1,0.2-0.1,0.3c0,0.1,0,0.3,0,0.4v2.4c0,0.1,0,0.3,0,0.3c0,0.1,0,0.2,0,0.3
		c0,0.1,0.1,0.2,0.1,0.3c0,0.1,0.1,0.1,0.2,0.2C-101,84.2-100.9,84.3-100.8,84.3z"/>
	<path class="st6" d="M-97.6,85.3v-6.6h1.6v1c0.2-0.4,0.4-0.7,0.7-0.8c0.2-0.2,0.5-0.3,0.7-0.3c0.1,0,0.2,0,0.2,0v1.5
		c-0.2-0.1-0.4-0.1-0.5-0.1c-0.2,0-0.4,0.1-0.6,0.2c-0.2,0.1-0.3,0.3-0.5,0.5v4.5H-97.6z"/>
	<path class="st6" d="M-91.7,85.4c-0.8,0-1.3-0.2-1.6-0.6c-0.3-0.4-0.5-1-0.5-1.9V81c0-0.8,0.2-1.4,0.5-1.9c0.3-0.4,0.9-0.6,1.6-0.6
		c0.4,0,0.7,0.1,1,0.2c0.3,0.1,0.5,0.3,0.6,0.5c0.2,0.2,0.3,0.5,0.3,0.8c0.1,0.3,0.1,0.7,0.1,1.1V82h-2.6v1c0,0.1,0,0.2,0,0.3
		c0,0.1,0,0.2,0,0.3c0,0.1,0,0.2,0.1,0.3c0,0.1,0.1,0.1,0.1,0.2c0,0.1,0.1,0.1,0.2,0.1c0.1,0,0.1,0,0.2,0c0.2,0,0.4-0.1,0.4-0.2
		c0.1-0.1,0.1-0.4,0.1-0.6V83h1.5v0.3c0,0.7-0.2,1.2-0.5,1.6C-90.5,85.2-91,85.4-91.7,85.4z M-92.2,81.2h1.1v-0.6
		c0-0.3,0-0.6-0.1-0.7c-0.1-0.1-0.2-0.2-0.4-0.2c-0.2,0-0.4,0.1-0.4,0.2c-0.1,0.2-0.1,0.5-0.1,0.9V81.2z"/>
	<path class="st6" d="M-88.6,85.3v-6.6h1.5v0.6c0.4-0.5,1-0.7,1.6-0.7c0.6,0,0.9,0.3,1.1,0.8c0.5-0.5,1-0.8,1.7-0.8
		c0.4,0,0.7,0.1,0.9,0.4c0.2,0.3,0.3,0.7,0.3,1.2v5.2H-83v-5c0-0.2,0-0.4-0.1-0.5c-0.1-0.1-0.2-0.1-0.4-0.1c-0.3,0-0.5,0.1-0.8,0.4
		c0,0,0,0,0,0.1c0,0,0,0.1,0,0.1v5.2h-1.5v-5c0-0.2,0-0.4-0.1-0.5c-0.1-0.1-0.2-0.1-0.4-0.1c-0.3,0-0.5,0.1-0.8,0.4v5.3H-88.6z"/>
	<path class="st6" d="M-77.5,77.6v-1.3h1.6v1.3H-77.5z M-77.5,85.3v-6.6h1.6v6.6H-77.5z"/>
	<path class="st6" d="M-74.7,87.4v-8.8h1.6v0.5c0.4-0.4,0.9-0.6,1.3-0.6c0.2,0,0.4,0.1,0.6,0.2c0.2,0.1,0.3,0.2,0.4,0.4
		c0.1,0.2,0.2,0.3,0.3,0.5c0.1,0.2,0.1,0.4,0.1,0.6s0,0.4,0,0.6v2.2c0,0.3,0,0.6-0.1,0.9c-0.1,0.3-0.1,0.5-0.3,0.8
		c-0.1,0.2-0.3,0.4-0.5,0.5c-0.2,0.1-0.5,0.2-0.7,0.2c-0.4,0-0.8-0.2-1.2-0.6v2.7H-74.7z M-72.5,84.2c0.1,0,0.2,0,0.3-0.1
		c0.1-0.1,0.1-0.2,0.2-0.3c0-0.1,0.1-0.3,0.1-0.4c0-0.1,0-0.3,0-0.5v-2.3c0-0.2,0-0.3,0-0.4c0-0.1,0-0.2-0.1-0.3
		c0-0.1-0.1-0.2-0.2-0.3c-0.1-0.1-0.2-0.1-0.3-0.1c-0.2,0-0.4,0.1-0.6,0.3V84C-72.9,84.2-72.7,84.2-72.5,84.2z"/>
	<path class="st6" d="M-67.5,85.4c-0.5,0-1-0.2-1.3-0.5c-0.4-0.3-0.6-0.7-0.7-1.3l1.2-0.4c0.1,0.4,0.2,0.6,0.3,0.8
		c0.1,0.2,0.3,0.3,0.6,0.3c0.2,0,0.3-0.1,0.4-0.2c0.1-0.1,0.2-0.3,0.1-0.4c0-0.2-0.2-0.5-0.7-0.9l-0.9-0.8c-0.6-0.6-1-1.1-0.9-1.7
		c0-0.5,0.2-1,0.5-1.3c0.3-0.3,0.8-0.5,1.3-0.5c0.5,0,0.9,0.2,1.3,0.5c0.3,0.3,0.5,0.7,0.6,1.3l-1,0.4c-0.1-0.7-0.4-1-0.8-1
		c-0.2,0-0.3,0-0.4,0.2C-68,79.9-68,80-68,80.2c0,0.2,0.2,0.5,0.6,0.8l0.9,0.8c0.2,0.1,0.3,0.3,0.4,0.4c0.1,0.1,0.2,0.2,0.3,0.4
		c0.1,0.2,0.2,0.3,0.2,0.5c0.1,0.2,0.1,0.4,0.1,0.6c0,0.6-0.2,1-0.6,1.3C-66.5,85.2-67,85.4-67.5,85.4z"/>
	<path class="st6" d="M-63.7,85.4c-0.4,0-0.7-0.1-0.8-0.4c-0.2-0.3-0.3-0.6-0.3-1v-5.3h1.6v5c0,0.2,0,0.4,0.1,0.5
		c0.1,0.1,0.2,0.1,0.4,0.1c0.2,0,0.4-0.1,0.7-0.3v-5.3h1.6v6.6h-1.6v-0.6C-62.6,85.1-63.1,85.4-63.7,85.4z"/>
	<path class="st6" d="M-59.3,85.3v-6.6h1.5v0.6c0.4-0.5,1-0.7,1.6-0.7c0.6,0,0.9,0.3,1.1,0.8c0.5-0.5,1-0.8,1.7-0.8
		c0.4,0,0.7,0.1,0.9,0.4c0.2,0.3,0.3,0.7,0.3,1.2v5.2h-1.5v-5c0-0.2,0-0.4-0.1-0.5c-0.1-0.1-0.2-0.1-0.4-0.1c-0.3,0-0.5,0.1-0.8,0.4
		c0,0,0,0,0,0.1c0,0,0,0.1,0,0.1v5.2h-1.5v-5c0-0.2,0-0.4-0.1-0.5c-0.1-0.1-0.2-0.1-0.4-0.1c-0.3,0-0.5,0.1-0.8,0.4v5.3H-59.3z"/>
	<path class="st6" d="M-46.8,85.4c-0.5,0-0.9-0.2-1.2-0.6c-0.3-0.4-0.4-1-0.4-1.8V81c0-0.4,0-0.7,0.1-1c0.1-0.3,0.1-0.5,0.3-0.8
		c0.1-0.2,0.3-0.4,0.5-0.6c0.2-0.1,0.5-0.2,0.8-0.2c0.4,0,0.8,0.2,1.2,0.5V76h1.6v9.3h-1.6v-0.5C-46,85.2-46.4,85.4-46.8,85.4z
		 M-46.2,84.2c0.2,0,0.4-0.1,0.6-0.2v-4.2c-0.2-0.1-0.4-0.2-0.6-0.2c-0.2,0-0.4,0.1-0.5,0.3c-0.1,0.2-0.1,0.4-0.1,0.7v2.4
		c0,0.2,0,0.4,0,0.6c0,0.2,0.1,0.3,0.2,0.4C-46.5,84.2-46.4,84.2-46.2,84.2z"/>
	<path class="st6" d="M-40.9,85.4c-0.7,0-1.2-0.2-1.6-0.6c-0.3-0.4-0.5-1-0.5-1.7v-2.2c0-0.7,0.2-1.3,0.5-1.7
		c0.3-0.4,0.9-0.6,1.6-0.6c0.7,0,1.3,0.2,1.6,0.6c0.4,0.4,0.5,1,0.5,1.7V83c0,0.7-0.2,1.3-0.5,1.7C-39.6,85.2-40.2,85.4-40.9,85.4z
		 M-40.9,84.3c0.1,0,0.2,0,0.3-0.1c0.1-0.1,0.1-0.1,0.2-0.3c0-0.1,0.1-0.2,0.1-0.3c0-0.1,0-0.3,0-0.4v-2.4c0-0.1,0-0.3,0-0.3
		c0-0.1,0-0.2,0-0.3c0-0.1-0.1-0.2-0.1-0.3c0-0.1-0.1-0.1-0.2-0.2c-0.1,0-0.2-0.1-0.3-0.1c-0.1,0-0.2,0-0.3,0.1
		c-0.1,0.1-0.1,0.1-0.2,0.3c0,0.1-0.1,0.2-0.1,0.3c0,0.1,0,0.3,0,0.4v2.4c0,0.1,0,0.3,0,0.3c0,0.1,0,0.2,0,0.3
		c0,0.1,0.1,0.2,0.1,0.3c0,0.1,0.1,0.1,0.2,0.2C-41.1,84.2-41,84.3-40.9,84.3z"/>
	<path class="st6" d="M-37.6,85.3V76h1.6v9.3H-37.6z"/>
	<path class="st6" d="M-32.8,85.4c-0.7,0-1.2-0.2-1.6-0.6c-0.3-0.4-0.5-1-0.5-1.7v-2.2c0-0.7,0.2-1.3,0.5-1.7
		c0.3-0.4,0.9-0.6,1.6-0.6c0.7,0,1.3,0.2,1.6,0.6c0.4,0.4,0.5,1,0.5,1.7V83c0,0.7-0.2,1.3-0.5,1.7C-31.5,85.2-32.1,85.4-32.8,85.4z
		 M-32.8,84.3c0.1,0,0.2,0,0.3-0.1c0.1-0.1,0.1-0.1,0.2-0.3c0-0.1,0.1-0.2,0.1-0.3c0-0.1,0-0.3,0-0.4v-2.4c0-0.1,0-0.3,0-0.3
		c0-0.1,0-0.2,0-0.3c0-0.1-0.1-0.2-0.1-0.3c0-0.1-0.1-0.1-0.2-0.2c-0.1,0-0.2-0.1-0.3-0.1c-0.1,0-0.2,0-0.3,0.1s-0.1,0.1-0.2,0.3
		c0,0.1-0.1,0.2-0.1,0.3c0,0.1,0,0.3,0,0.4v2.4c0,0.1,0,0.3,0,0.3c0,0.1,0,0.2,0,0.3c0,0.1,0.1,0.2,0.1,0.3c0,0.1,0.1,0.1,0.2,0.2
		C-33,84.2-32.9,84.3-32.8,84.3z"/>
	<path class="st6" d="M-29.6,85.3v-6.6h1.6v1c0.2-0.4,0.4-0.7,0.7-0.8c0.2-0.2,0.5-0.3,0.7-0.3c0.1,0,0.2,0,0.2,0v1.5
		c-0.2-0.1-0.4-0.1-0.5-0.1c-0.2,0-0.4,0.1-0.6,0.2c-0.2,0.1-0.3,0.3-0.5,0.5v4.5H-29.6z"/>
	<path class="st6" d="M-21.1,85.4c-0.5,0-1-0.2-1.3-0.5s-0.6-0.7-0.7-1.3l1.2-0.4c0.1,0.4,0.2,0.6,0.3,0.8s0.3,0.3,0.6,0.3
		c0.2,0,0.3-0.1,0.4-0.2c0.1-0.1,0.2-0.3,0.1-0.4c0-0.2-0.2-0.5-0.7-0.9l-0.9-0.8c-0.6-0.6-1-1.1-0.9-1.7c0-0.5,0.2-1,0.5-1.3
		c0.3-0.3,0.8-0.5,1.3-0.5c0.5,0,0.9,0.2,1.3,0.5c0.3,0.3,0.5,0.7,0.6,1.3l-1,0.4c-0.1-0.7-0.4-1-0.8-1c-0.2,0-0.3,0-0.4,0.2
		c-0.1,0.1-0.1,0.2-0.1,0.4c0,0.2,0.2,0.5,0.6,0.8l0.9,0.8c0.2,0.1,0.3,0.3,0.4,0.4c0.1,0.1,0.2,0.2,0.3,0.4
		c0.1,0.2,0.2,0.3,0.2,0.5c0.1,0.2,0.1,0.4,0.1,0.6c0,0.6-0.2,1-0.6,1.3S-20.5,85.4-21.1,85.4z"/>
	<path class="st6" d="M-18.2,77.6v-1.3h1.6v1.3H-18.2z M-18.2,85.3v-6.6h1.6v6.6H-18.2z"/>
	<path class="st6" d="M-13.6,85.3c-0.3,0-0.6-0.1-0.8-0.2c-0.2-0.1-0.4-0.2-0.5-0.4c-0.1-0.2-0.2-0.4-0.2-0.6
		c-0.1-0.2-0.1-0.5-0.1-0.8v-3.7h-0.7v-1h0.7v-1.9h1.6v1.9h1v1h-1v3.8c0,0.2,0,0.4,0.1,0.5c0.1,0.1,0.2,0.1,0.5,0.1
		c0.1,0,0.3,0,0.5,0v1.2C-13,85.3-13.3,85.4-13.6,85.3z"/>
	<path class="st6" d="M-7.6,85.4c-0.4,0-0.8-0.2-1-0.5C-8.9,84.5-9,84.2-9,83.8c0-0.4,0.1-0.7,0.2-1c0.1-0.3,0.3-0.5,0.6-0.7
		c0.3-0.2,0.5-0.4,0.7-0.4c0.2-0.1,0.5-0.2,0.9-0.4c0.1,0,0.2-0.1,0.3-0.1v-0.6c0-0.3,0-0.5-0.1-0.7c-0.1-0.1-0.2-0.2-0.4-0.2
		c-0.3,0-0.5,0.2-0.5,0.7l0,0.4l-1.5-0.1c0,0,0-0.1,0-0.1c0-0.1,0-0.1,0-0.1c0-0.7,0.3-1.2,0.6-1.5c0.4-0.3,0.9-0.5,1.6-0.5
		c0.7,0,1.1,0.2,1.5,0.5c0.3,0.4,0.5,0.9,0.5,1.5v3c0,0.5,0,1.1,0.1,1.7h-1.4c-0.1-0.4-0.1-0.8-0.2-1c-0.1,0.3-0.2,0.6-0.5,0.8
		C-6.9,85.3-7.2,85.4-7.6,85.4z M-7,84.1c0.1,0,0.2,0,0.4-0.1c0.1-0.1,0.2-0.2,0.3-0.3v-1.8c-0.8,0.4-1.2,0.9-1.2,1.5
		c0,0.2,0,0.4,0.1,0.6C-7.3,84.1-7.1,84.1-7,84.1z"/>
	<path class="st6" d="M-3.7,85.3v-6.6h1.5v0.6c0.4-0.5,1-0.7,1.6-0.7c0.6,0,0.9,0.3,1.1,0.8c0.5-0.5,1-0.8,1.7-0.8
		c0.4,0,0.7,0.1,0.9,0.4c0.2,0.3,0.3,0.7,0.3,1.2v5.2H1.9v-5c0-0.2,0-0.4-0.1-0.5c-0.1-0.1-0.2-0.1-0.4-0.1c-0.3,0-0.5,0.1-0.8,0.4
		c0,0,0,0,0,0.1c0,0,0,0.1,0,0.1v5.2h-1.5v-5c0-0.2,0-0.4-0.1-0.5c-0.1-0.1-0.2-0.1-0.4-0.1c-0.3,0-0.5,0.1-0.8,0.4v5.3H-3.7z"/>
	<path class="st6" d="M6.6,85.4c-0.8,0-1.3-0.2-1.6-0.6c-0.3-0.4-0.5-1-0.5-1.9V81c0-0.8,0.2-1.4,0.5-1.9c0.3-0.4,0.9-0.6,1.6-0.6
		c0.4,0,0.7,0.1,1,0.2C7.8,78.8,8,79,8.2,79.2c0.2,0.2,0.3,0.5,0.3,0.8c0.1,0.3,0.1,0.7,0.1,1.1V82H6v1c0,0.1,0,0.2,0,0.3
		c0,0.1,0,0.2,0,0.3c0,0.1,0,0.2,0.1,0.3c0,0.1,0.1,0.1,0.1,0.2c0,0.1,0.1,0.1,0.2,0.1c0.1,0,0.1,0,0.2,0c0.2,0,0.4-0.1,0.4-0.2
		c0.1-0.1,0.1-0.4,0.1-0.6V83h1.5v0.3c0,0.7-0.2,1.2-0.5,1.6C7.8,85.2,7.2,85.4,6.6,85.4z M6,81.2h1.1v-0.6c0-0.3,0-0.6-0.1-0.7
		c-0.1-0.1-0.2-0.2-0.4-0.2c-0.2,0-0.4,0.1-0.4,0.2C6,80.1,6,80.4,6,80.8V81.2z"/>
	<path class="st6" d="M11.5,85.3c-0.3,0-0.6-0.1-0.8-0.2c-0.2-0.1-0.4-0.2-0.5-0.4c-0.1-0.2-0.2-0.4-0.2-0.6
		c-0.1-0.2-0.1-0.5-0.1-0.8v-3.7H9.3v-1h0.7v-1.9h1.6v1.9h1v1h-1v3.8c0,0.2,0,0.4,0.1,0.5c0.1,0.1,0.2,0.1,0.5,0.1
		c0.1,0,0.3,0,0.5,0v1.2C12.2,85.3,11.8,85.4,11.5,85.3z"/>
	<path class="st6" d="M13.6,86.8l-0.2-0.6c0.2-0.1,0.4-0.2,0.5-0.3c0.1-0.2,0.2-0.4,0.2-0.6h-0.8v-1.5h1.5v1.4
		C14.9,86.1,14.4,86.7,13.6,86.8z"/>
	<path class="st6" d="M20.7,85.4c-0.8,0-1.3-0.2-1.6-0.6c-0.3-0.4-0.5-1-0.5-1.8V81c0-0.8,0.2-1.4,0.5-1.8c0.3-0.4,0.9-0.6,1.6-0.6
		c0.7,0,1.2,0.2,1.5,0.5c0.3,0.3,0.5,0.8,0.5,1.5v0.5h-1.5v-0.6c0-0.3,0-0.6-0.1-0.7c-0.1-0.1-0.2-0.2-0.4-0.2
		c-0.2,0-0.4,0.1-0.4,0.2c-0.1,0.2-0.1,0.4-0.1,0.9v2.4c0,0.4,0,0.7,0.1,0.9c0.1,0.1,0.2,0.2,0.4,0.2c0.2,0,0.4-0.1,0.4-0.2
		c0.1-0.1,0.1-0.4,0.1-0.7v-0.7h1.5v0.6c0,0.7-0.2,1.2-0.5,1.5C21.9,85.2,21.4,85.4,20.7,85.4z"/>
	<path class="st6" d="M25.7,85.4c-0.7,0-1.2-0.2-1.6-0.6c-0.3-0.4-0.5-1-0.5-1.7v-2.2c0-0.7,0.2-1.3,0.5-1.7
		c0.3-0.4,0.9-0.6,1.6-0.6c0.7,0,1.3,0.2,1.6,0.6c0.4,0.4,0.5,1,0.5,1.7V83c0,0.7-0.2,1.3-0.5,1.7C27,85.2,26.4,85.4,25.7,85.4z
		 M25.7,84.3c0.1,0,0.2,0,0.3-0.1c0.1-0.1,0.1-0.1,0.2-0.3c0-0.1,0.1-0.2,0.1-0.3c0-0.1,0-0.3,0-0.4v-2.4c0-0.1,0-0.3,0-0.3
		c0-0.1,0-0.2,0-0.3c0-0.1-0.1-0.2-0.1-0.3c0-0.1-0.1-0.1-0.2-0.2c-0.1,0-0.2-0.1-0.3-0.1c-0.1,0-0.2,0-0.3,0.1
		c-0.1,0.1-0.1,0.1-0.2,0.3c0,0.1-0.1,0.2-0.1,0.3c0,0.1,0,0.3,0,0.4v2.4c0,0.1,0,0.3,0,0.3c0,0.1,0,0.2,0,0.3
		c0,0.1,0.1,0.2,0.1,0.3c0,0.1,0.1,0.1,0.2,0.2C25.5,84.2,25.6,84.3,25.7,84.3z"/>
	<path class="st6" d="M28.9,85.3v-6.6h1.6v0.6c0.5-0.5,1.1-0.7,1.6-0.7c0.4,0,0.7,0.1,0.8,0.4c0.2,0.3,0.3,0.6,0.3,1v5.3h-1.6v-4.9
		c0-0.2,0-0.4-0.1-0.5c-0.1-0.1-0.2-0.1-0.3-0.1c-0.2,0-0.4,0.1-0.7,0.3v5.3H28.9z"/>
	<path class="st6" d="M36,85.4c-0.5,0-1-0.2-1.3-0.5c-0.4-0.3-0.6-0.7-0.7-1.3l1.2-0.4c0.1,0.4,0.2,0.6,0.3,0.8
		c0.1,0.2,0.3,0.3,0.6,0.3c0.2,0,0.3-0.1,0.4-0.2c0.1-0.1,0.2-0.3,0.1-0.4c0-0.2-0.2-0.5-0.7-0.9L35.1,82c-0.6-0.6-1-1.1-0.9-1.7
		c0-0.5,0.2-1,0.5-1.3c0.3-0.3,0.8-0.5,1.3-0.5c0.5,0,0.9,0.2,1.3,0.5c0.3,0.3,0.5,0.7,0.6,1.3l-1,0.4c-0.1-0.7-0.4-1-0.8-1
		c-0.2,0-0.3,0-0.4,0.2c-0.1,0.1-0.1,0.2-0.1,0.4c0,0.2,0.2,0.5,0.6,0.8l0.9,0.8c0.2,0.1,0.3,0.3,0.4,0.4c0.1,0.1,0.2,0.2,0.3,0.4
		c0.1,0.2,0.2,0.3,0.2,0.5c0.1,0.2,0.1,0.4,0.1,0.6c0,0.6-0.2,1-0.6,1.3S36.6,85.4,36,85.4z"/>
	<path class="st6" d="M40.9,85.4c-0.8,0-1.3-0.2-1.6-0.6c-0.3-0.4-0.5-1-0.5-1.9V81c0-0.8,0.2-1.4,0.5-1.9c0.3-0.4,0.9-0.6,1.6-0.6
		c0.4,0,0.7,0.1,1,0.2c0.3,0.1,0.5,0.3,0.6,0.5c0.2,0.2,0.3,0.5,0.3,0.8c0.1,0.3,0.1,0.7,0.1,1.1V82h-2.6v1c0,0.1,0,0.2,0,0.3
		c0,0.1,0,0.2,0,0.3c0,0.1,0,0.2,0.1,0.3c0,0.1,0.1,0.1,0.1,0.2c0,0.1,0.1,0.1,0.2,0.1c0.1,0,0.1,0,0.2,0c0.2,0,0.4-0.1,0.4-0.2
		c0.1-0.1,0.1-0.4,0.1-0.6V83h1.5v0.3c0,0.7-0.2,1.2-0.5,1.6C42.1,85.2,41.6,85.4,40.9,85.4z M40.3,81.2h1.1v-0.6
		c0-0.3,0-0.6-0.1-0.7c-0.1-0.1-0.2-0.2-0.4-0.2c-0.2,0-0.4,0.1-0.4,0.2c-0.1,0.2-0.1,0.5-0.1,0.9V81.2z"/>
	<path class="st6" d="M46,85.4c-0.8,0-1.3-0.2-1.6-0.6c-0.3-0.4-0.5-1-0.5-1.8V81c0-0.8,0.2-1.4,0.5-1.8c0.3-0.4,0.9-0.6,1.6-0.6
		c0.7,0,1.2,0.2,1.5,0.5c0.3,0.3,0.5,0.8,0.5,1.5v0.5h-1.5v-0.6c0-0.3,0-0.6-0.1-0.7c-0.1-0.1-0.2-0.2-0.4-0.2
		c-0.2,0-0.4,0.1-0.4,0.2c-0.1,0.2-0.1,0.4-0.1,0.9v2.4c0,0.4,0,0.7,0.1,0.9c0.1,0.1,0.2,0.2,0.4,0.2c0.2,0,0.4-0.1,0.4-0.2
		s0.1-0.4,0.1-0.7v-0.7H48v0.6c0,0.7-0.2,1.2-0.5,1.5C47.2,85.2,46.7,85.4,46,85.4z"/>
	<path class="st6" d="M50.9,85.3c-0.3,0-0.6-0.1-0.8-0.2c-0.2-0.1-0.4-0.2-0.5-0.4c-0.1-0.2-0.2-0.4-0.2-0.6
		c-0.1-0.2-0.1-0.5-0.1-0.8v-3.7h-0.7v-1h0.7v-1.9h1.6v1.9h1v1h-1v3.8c0,0.2,0,0.4,0.1,0.5c0.1,0.1,0.2,0.1,0.5,0.1
		c0.1,0,0.3,0,0.5,0v1.2C51.5,85.3,51.1,85.4,50.9,85.3z"/>
	<path class="st6" d="M54.8,85.4c-0.8,0-1.3-0.2-1.6-0.6c-0.3-0.4-0.5-1-0.5-1.9V81c0-0.8,0.2-1.4,0.5-1.9c0.3-0.4,0.9-0.6,1.6-0.6
		c0.4,0,0.7,0.1,1,0.2c0.3,0.1,0.5,0.3,0.6,0.5c0.2,0.2,0.3,0.5,0.3,0.8c0.1,0.3,0.1,0.7,0.1,1.1V82h-2.6v1c0,0.1,0,0.2,0,0.3
		c0,0.1,0,0.2,0,0.3c0,0.1,0,0.2,0.1,0.3c0,0.1,0.1,0.1,0.1,0.2c0,0.1,0.1,0.1,0.2,0.1c0.1,0,0.1,0,0.2,0c0.2,0,0.4-0.1,0.4-0.2
		c0.1-0.1,0.1-0.4,0.1-0.6V83h1.5v0.3c0,0.7-0.2,1.2-0.5,1.6C56,85.2,55.5,85.4,54.8,85.4z M54.3,81.2h1.1v-0.6c0-0.3,0-0.6-0.1-0.7
		c-0.1-0.1-0.2-0.2-0.4-0.2c-0.2,0-0.4,0.1-0.4,0.2c-0.1,0.2-0.1,0.5-0.1,0.9V81.2z"/>
	<path class="st6" d="M59.8,85.3c-0.3,0-0.6-0.1-0.8-0.2c-0.2-0.1-0.4-0.2-0.5-0.4c-0.1-0.2-0.2-0.4-0.2-0.6
		c-0.1-0.2-0.1-0.5-0.1-0.8v-3.7h-0.7v-1h0.7v-1.9h1.6v1.9h1v1h-1v3.8c0,0.2,0,0.4,0.1,0.5c0.1,0.1,0.2,0.1,0.5,0.1
		c0.1,0,0.3,0,0.5,0v1.2C60.4,85.3,60.1,85.4,59.8,85.3z"/>
	<path class="st6" d="M62.8,85.4c-0.4,0-0.7-0.1-0.8-0.4c-0.2-0.3-0.3-0.6-0.3-1v-5.3h1.6v5c0,0.2,0,0.4,0.1,0.5
		c0.1,0.1,0.2,0.1,0.4,0.1c0.2,0,0.4-0.1,0.7-0.3v-5.3h1.6v6.6h-1.6v-0.6C63.8,85.1,63.3,85.4,62.8,85.4z"/>
	<path class="st6" d="M67.2,85.3v-6.6h1.6v1c0.2-0.4,0.4-0.7,0.7-0.8c0.2-0.2,0.5-0.3,0.7-0.3c0.1,0,0.2,0,0.2,0v1.5
		C70.2,80.1,70,80,69.8,80c-0.2,0-0.4,0.1-0.6,0.2c-0.2,0.1-0.3,0.3-0.5,0.5v4.5H67.2z"/>
	<path class="st6" d="M-106.4,99.1c-0.4,0-0.8-0.2-1-0.5c-0.3-0.3-0.4-0.7-0.4-1.1c0-0.4,0.1-0.7,0.2-1c0.1-0.3,0.3-0.5,0.6-0.7
		c0.3-0.2,0.5-0.4,0.7-0.4c0.2-0.1,0.5-0.2,0.9-0.4c0.1,0,0.2-0.1,0.3-0.1v-0.6c0-0.3,0-0.5-0.1-0.7c-0.1-0.1-0.2-0.2-0.4-0.2
		c-0.3,0-0.5,0.2-0.5,0.7l0,0.4l-1.5-0.1c0,0,0-0.1,0-0.1c0-0.1,0-0.1,0-0.1c0-0.7,0.3-1.2,0.6-1.5c0.4-0.3,0.9-0.5,1.6-0.5
		c0.7,0,1.1,0.2,1.5,0.5c0.3,0.4,0.5,0.9,0.5,1.5v3c0,0.5,0,1.1,0.1,1.7h-1.4c-0.1-0.4-0.1-0.8-0.2-1c-0.1,0.3-0.2,0.6-0.5,0.8
		C-105.7,99-106,99.1-106.4,99.1z M-105.8,97.9c0.1,0,0.2,0,0.4-0.1c0.1-0.1,0.2-0.2,0.3-0.3v-1.8c-0.8,0.4-1.2,0.9-1.2,1.5
		c0,0.2,0,0.4,0.1,0.6C-106.1,97.8-105.9,97.9-105.8,97.9z"/>
	<path class="st6" d="M-100.9,99.1c-0.5,0-0.9-0.2-1.2-0.6c-0.3-0.4-0.4-1-0.4-1.8v-1.9c0-0.4,0-0.7,0.1-1c0.1-0.3,0.1-0.5,0.3-0.8
		c0.1-0.2,0.3-0.4,0.5-0.6c0.2-0.1,0.5-0.2,0.8-0.2c0.4,0,0.8,0.2,1.2,0.5v-3.1h1.6V99h-1.6v-0.5C-100.1,98.9-100.5,99.1-100.9,99.1
		z M-100.4,98c0.2,0,0.4-0.1,0.6-0.2v-4.2c-0.2-0.1-0.4-0.2-0.6-0.2c-0.2,0-0.4,0.1-0.5,0.3c-0.1,0.2-0.1,0.4-0.1,0.7v2.4
		c0,0.2,0,0.4,0,0.6c0,0.2,0.1,0.3,0.2,0.4C-100.7,97.9-100.6,98-100.4,98z"/>
	<path class="st6" d="M-97,91.3V90h1.6v1.3H-97z M-97,99v-6.6h1.6V99H-97z"/>
	<path class="st6" d="M-94.2,101.2v-8.8h1.6v0.5c0.4-0.4,0.9-0.6,1.3-0.6c0.2,0,0.4,0.1,0.6,0.2c0.2,0.1,0.3,0.2,0.4,0.4
		c0.1,0.2,0.2,0.3,0.3,0.5c0.1,0.2,0.1,0.4,0.1,0.6c0,0.2,0,0.4,0,0.6v2.2c0,0.3,0,0.6-0.1,0.9c-0.1,0.3-0.1,0.5-0.3,0.8
		c-0.1,0.2-0.3,0.4-0.5,0.5c-0.2,0.1-0.5,0.2-0.7,0.2c-0.4,0-0.8-0.2-1.2-0.6v2.7H-94.2z M-91.9,98c0.1,0,0.2,0,0.3-0.1
		c0.1-0.1,0.1-0.2,0.2-0.3c0-0.1,0.1-0.3,0.1-0.4c0-0.1,0-0.3,0-0.5v-2.3c0-0.2,0-0.3,0-0.4c0-0.1,0-0.2-0.1-0.3
		c0-0.1-0.1-0.2-0.2-0.3c-0.1-0.1-0.2-0.1-0.3-0.1c-0.2,0-0.4,0.1-0.6,0.3v4.1C-92.4,97.9-92.2,98-91.9,98z"/>
	<path class="st6" d="M-88.7,91.3V90h1.6v1.3H-88.7z M-88.7,99v-6.6h1.6V99H-88.7z"/>
	<path class="st6" d="M-84.2,99.1c-0.5,0-1-0.2-1.3-0.5c-0.4-0.3-0.6-0.7-0.7-1.3l1.2-0.4c0.1,0.4,0.2,0.6,0.3,0.8
		c0.1,0.2,0.3,0.3,0.6,0.3c0.2,0,0.3-0.1,0.4-0.2c0.1-0.1,0.2-0.3,0.1-0.4c0-0.2-0.2-0.5-0.7-0.9l-0.9-0.8c-0.6-0.6-1-1.1-0.9-1.7
		c0-0.5,0.2-1,0.5-1.3c0.3-0.3,0.8-0.5,1.3-0.5c0.5,0,0.9,0.2,1.3,0.5c0.3,0.3,0.5,0.7,0.6,1.3l-1,0.4c-0.1-0.7-0.4-1-0.8-1
		c-0.2,0-0.3,0-0.4,0.2s-0.1,0.2-0.1,0.4c0,0.2,0.2,0.5,0.6,0.8l0.9,0.8c0.2,0.1,0.3,0.3,0.4,0.4c0.1,0.1,0.2,0.2,0.3,0.4
		c0.1,0.2,0.2,0.3,0.2,0.5c0.1,0.2,0.1,0.4,0.1,0.6c0,0.6-0.2,1-0.6,1.3C-83.1,98.9-83.6,99.1-84.2,99.1z"/>
	<path class="st6" d="M-79.4,99.1c-0.8,0-1.3-0.2-1.6-0.6c-0.3-0.4-0.5-1-0.5-1.8v-1.9c0-0.8,0.2-1.4,0.5-1.8
		c0.3-0.4,0.9-0.6,1.6-0.6c0.7,0,1.2,0.2,1.5,0.5c0.3,0.3,0.5,0.8,0.5,1.5v0.5h-1.5v-0.6c0-0.3,0-0.6-0.1-0.7
		c-0.1-0.1-0.2-0.2-0.4-0.2c-0.2,0-0.4,0.1-0.4,0.2c-0.1,0.2-0.1,0.4-0.1,0.9v2.4c0,0.4,0,0.7,0.1,0.9c0.1,0.1,0.2,0.2,0.4,0.2
		c0.2,0,0.4-0.1,0.4-0.2c0.1-0.1,0.1-0.4,0.1-0.7v-0.7h1.5V97c0,0.7-0.2,1.2-0.5,1.5C-78.2,98.9-78.7,99.1-79.4,99.1z"/>
	<path class="st6" d="M-76.3,91.3V90h1.6v1.3H-76.3z M-76.3,99v-6.6h1.6V99H-76.3z"/>
	<path class="st6" d="M-73.5,99v-6.6h1.6V93c0.5-0.5,1.1-0.7,1.6-0.7c0.4,0,0.7,0.1,0.8,0.4c0.2,0.3,0.3,0.6,0.3,1V99h-1.6v-4.9
		c0-0.2,0-0.4-0.1-0.5c-0.1-0.1-0.2-0.1-0.3-0.1c-0.2,0-0.4,0.1-0.7,0.3V99H-73.5z"/>
	<path class="st6" d="M-65.8,101c-0.2,0-0.4,0-0.5,0c-0.1,0-0.3,0-0.5,0c-0.2,0-0.4,0-0.5-0.1c-0.1,0-0.3-0.1-0.4-0.1
		c-0.1-0.1-0.3-0.1-0.4-0.2c-0.1-0.1-0.2-0.2-0.2-0.3c-0.1-0.1-0.1-0.2-0.1-0.4c0-0.6,0.3-1,0.9-1.4c-0.4-0.2-0.7-0.4-0.7-0.7
		c0-0.2,0-0.4,0.2-0.6c0.1-0.2,0.3-0.4,0.6-0.6c-0.2-0.2-0.4-0.4-0.6-0.7c-0.1-0.3-0.2-0.7-0.2-1.1c0-0.8,0.2-1.4,0.5-1.8
		c0.4-0.4,0.9-0.6,1.5-0.6c0.7,0,1.2,0.2,1.4,0.6c0.1-0.1,0.2-0.2,0.4-0.4c0.2-0.1,0.3-0.3,0.5-0.3l0.2-0.1l0.4,0.9
		c-0.1,0-0.3,0.1-0.6,0.2c-0.3,0.1-0.4,0.2-0.5,0.2c0.1,0.1,0.1,0.3,0.2,0.6c0.1,0.2,0.1,0.5,0.1,0.7c0,1.5-0.7,2.3-2,2.3
		c-0.1,0-0.3,0-0.4,0c-0.2,0-0.3-0.1-0.4-0.1C-67,97-67,97.2-67,97.3c0,0.1,0.2,0.2,0.6,0.3c0,0,0.2,0,0.6,0.1
		c0.4,0,0.6,0.1,0.6,0.1c0.6,0.1,1,0.2,1.2,0.5c0.3,0.3,0.4,0.6,0.4,1.1c0,0.6-0.2,1-0.5,1.3C-64.4,100.9-65,101-65.8,101z
		 M-65.8,99.9c0.3,0,0.6,0,0.7-0.1c0.1-0.1,0.2-0.2,0.2-0.4c0-0.2,0-0.3-0.2-0.4c-0.1-0.1-0.3-0.1-0.6-0.2l-1.1-0.1
		c-0.2,0.3-0.3,0.5-0.3,0.7c0,0.1,0,0.2,0.1,0.3c0.1,0.1,0.2,0.1,0.4,0.2C-66.4,99.9-66.1,99.9-65.8,99.9z M-66.1,96
		c0.3,0,0.4-0.1,0.5-0.3c0.1-0.2,0.1-0.5,0.1-1c0-0.5,0-0.9-0.1-1.1c-0.1-0.2-0.2-0.3-0.5-0.3c-0.3,0-0.4,0.1-0.5,0.3
		c-0.1,0.2-0.1,0.6-0.1,1.1c0,0.2,0,0.3,0,0.5c0,0.1,0,0.2,0.1,0.4c0,0.1,0.1,0.2,0.1,0.3c0,0.1,0.1,0.1,0.2,0.2
		C-66.3,95.9-66.2,96-66.1,96z"/>
	<path class="st6" d="M-57.9,99.1c-0.8,0-1.3-0.2-1.6-0.6c-0.3-0.4-0.5-1-0.5-1.9v-1.9c0-0.8,0.2-1.4,0.5-1.9
		c0.3-0.4,0.9-0.6,1.6-0.6c0.4,0,0.7,0.1,1,0.2c0.3,0.1,0.5,0.3,0.6,0.5c0.2,0.2,0.3,0.5,0.3,0.8c0.1,0.3,0.1,0.7,0.1,1.1v0.9h-2.6
		v1c0,0.1,0,0.2,0,0.3c0,0.1,0,0.2,0,0.3c0,0.1,0,0.2,0.1,0.3c0,0.1,0.1,0.1,0.1,0.2c0,0.1,0.1,0.1,0.2,0.1c0.1,0,0.1,0,0.2,0
		c0.2,0,0.4-0.1,0.4-0.2c0.1-0.1,0.1-0.4,0.1-0.6v-0.4h1.5V97c0,0.7-0.2,1.2-0.5,1.6C-56.7,98.9-57.2,99.1-57.9,99.1z M-58.5,95h1.1
		v-0.6c0-0.3,0-0.6-0.1-0.7c-0.1-0.1-0.2-0.2-0.4-0.2c-0.2,0-0.4,0.1-0.4,0.2c-0.1,0.2-0.1,0.5-0.1,0.9V95z"/>
	<path class="st6" d="M-54.7,99v-9.3h1.6V99H-54.7z"/>
	<path class="st6" d="M-51.9,91.3V90h1.6v1.3H-51.9z M-51.9,99v-6.6h1.6V99H-51.9z"/>
	<path class="st6" d="M-47.2,99.1c-0.3,0-0.6-0.1-0.8-0.2c-0.2-0.1-0.4-0.2-0.5-0.4c-0.1-0.2-0.2-0.4-0.2-0.6
		c-0.1-0.2-0.1-0.5-0.1-0.8v-3.7h-0.7v-1h0.7v-1.9h1.6v1.9h1v1h-1v3.8c0,0.2,0,0.4,0.1,0.5c0.1,0.1,0.2,0.1,0.5,0.1
		c0.1,0,0.3,0,0.5,0V99C-46.6,99.1-47,99.1-47.2,99.1z"/>
	<path class="st6" d="M-45.2,100.6l-0.2-0.6c0.2-0.1,0.4-0.2,0.5-0.3c0.1-0.2,0.2-0.4,0.2-0.6h-0.8v-1.5h1.5v1.4
		C-43.9,99.8-44.3,100.4-45.2,100.6z"/>
	<path class="st6" d="M-38.4,99.1c-0.5,0-1-0.2-1.3-0.5c-0.4-0.3-0.6-0.7-0.7-1.3l1.2-0.4c0.1,0.4,0.2,0.6,0.3,0.8
		c0.1,0.2,0.3,0.3,0.6,0.3c0.2,0,0.3-0.1,0.4-0.2c0.1-0.1,0.2-0.3,0.1-0.4c0-0.2-0.2-0.5-0.7-0.9l-0.9-0.8c-0.6-0.6-1-1.1-0.9-1.7
		c0-0.5,0.2-1,0.5-1.3c0.3-0.3,0.8-0.5,1.3-0.5c0.5,0,0.9,0.2,1.3,0.5c0.3,0.3,0.5,0.7,0.6,1.3l-1,0.4c-0.1-0.7-0.4-1-0.8-1
		c-0.2,0-0.3,0-0.4,0.2c-0.1,0.1-0.1,0.2-0.1,0.4c0,0.2,0.2,0.5,0.6,0.8l0.9,0.8c0.2,0.1,0.3,0.3,0.4,0.4c0.1,0.1,0.2,0.2,0.3,0.4
		c0.1,0.2,0.2,0.3,0.2,0.5c0.1,0.2,0.1,0.4,0.1,0.6c0,0.6-0.2,1-0.6,1.3C-37.3,98.9-37.8,99.1-38.4,99.1z"/>
	<path class="st6" d="M-33.5,99.1c-0.8,0-1.3-0.2-1.6-0.6c-0.3-0.4-0.5-1-0.5-1.9v-1.9c0-0.8,0.2-1.4,0.5-1.9
		c0.3-0.4,0.9-0.6,1.6-0.6c0.4,0,0.7,0.1,1,0.2c0.3,0.1,0.5,0.3,0.6,0.5c0.2,0.2,0.3,0.5,0.3,0.8c0.1,0.3,0.1,0.7,0.1,1.1v0.9h-2.6
		v1c0,0.1,0,0.2,0,0.3c0,0.1,0,0.2,0,0.3c0,0.1,0,0.2,0.1,0.3c0,0.1,0.1,0.1,0.1,0.2c0,0.1,0.1,0.1,0.2,0.1c0.1,0,0.1,0,0.2,0
		c0.2,0,0.4-0.1,0.4-0.2c0.1-0.1,0.1-0.4,0.1-0.6v-0.4h1.5V97c0,0.7-0.2,1.2-0.5,1.6C-32.3,98.9-32.8,99.1-33.5,99.1z M-34.1,95h1.1
		v-0.6c0-0.3,0-0.6-0.1-0.7c-0.1-0.1-0.2-0.2-0.4-0.2c-0.2,0-0.4,0.1-0.4,0.2c-0.1,0.2-0.1,0.5-0.1,0.9V95z"/>
	<path class="st6" d="M-28.9,99.1c-0.5,0-0.9-0.2-1.2-0.6c-0.3-0.4-0.4-1-0.4-1.8v-1.9c0-0.4,0-0.7,0.1-1c0.1-0.3,0.1-0.5,0.3-0.8
		c0.1-0.2,0.3-0.4,0.5-0.6c0.2-0.1,0.5-0.2,0.8-0.2c0.4,0,0.8,0.2,1.2,0.5v-3.1h1.6V99h-1.6v-0.5C-28.1,98.9-28.5,99.1-28.9,99.1z
		 M-28.4,98c0.2,0,0.4-0.1,0.6-0.2v-4.2c-0.2-0.1-0.4-0.2-0.6-0.2c-0.2,0-0.4,0.1-0.5,0.3c-0.1,0.2-0.1,0.4-0.1,0.7v2.4
		c0,0.2,0,0.4,0,0.6c0,0.2,0.1,0.3,0.2,0.4C-28.6,97.9-28.5,98-28.4,98z"/>
	<path class="st6" d="M-20.7,99.1c-0.5,0-0.9-0.2-1.2-0.6c-0.3-0.4-0.4-1-0.4-1.8v-1.9c0-0.4,0-0.7,0.1-1c0.1-0.3,0.1-0.5,0.3-0.8
		c0.1-0.2,0.3-0.4,0.5-0.6c0.2-0.1,0.5-0.2,0.8-0.2c0.4,0,0.8,0.2,1.2,0.5v-3.1h1.6V99h-1.6v-0.5C-19.9,98.9-20.3,99.1-20.7,99.1z
		 M-20.1,98c0.2,0,0.4-0.1,0.6-0.2v-4.2c-0.2-0.1-0.4-0.2-0.6-0.2c-0.2,0-0.4,0.1-0.5,0.3c-0.1,0.2-0.1,0.4-0.1,0.7v2.4
		c0,0.2,0,0.4,0,0.6c0,0.2,0.1,0.3,0.2,0.4C-20.4,97.9-20.3,98-20.1,98z"/>
	<path class="st6" d="M-14.8,99.1c-0.7,0-1.2-0.2-1.6-0.6c-0.3-0.4-0.5-1-0.5-1.7v-2.2c0-0.7,0.2-1.3,0.5-1.7
		c0.3-0.4,0.9-0.6,1.6-0.6c0.7,0,1.3,0.2,1.6,0.6c0.4,0.4,0.5,1,0.5,1.7v2.2c0,0.7-0.2,1.3-0.5,1.7C-13.5,98.9-14.1,99.1-14.8,99.1z
		 M-14.8,98c0.1,0,0.2,0,0.3-0.1c0.1-0.1,0.1-0.1,0.2-0.3c0-0.1,0.1-0.2,0.1-0.3c0-0.1,0-0.3,0-0.4v-2.4c0-0.1,0-0.3,0-0.3
		c0-0.1,0-0.2,0-0.3c0-0.1-0.1-0.2-0.1-0.3c0-0.1-0.1-0.1-0.2-0.2c-0.1,0-0.2-0.1-0.3-0.1c-0.1,0-0.2,0-0.3,0.1
		c-0.1,0.1-0.1,0.1-0.2,0.3c0,0.1-0.1,0.2-0.1,0.3c0,0.1,0,0.3,0,0.4v2.4c0,0.1,0,0.3,0,0.3c0,0.1,0,0.2,0,0.3
		c0,0.1,0.1,0.2,0.1,0.3c0,0.1,0.1,0.1,0.2,0.2C-15,98-14.9,98-14.8,98z"/>
	<path class="st6" d="M-6.8,99.1c-0.8,0-1.3-0.2-1.6-0.6c-0.3-0.4-0.5-1-0.5-1.9v-1.9c0-0.8,0.2-1.4,0.5-1.9
		c0.3-0.4,0.9-0.6,1.6-0.6c0.4,0,0.7,0.1,1,0.2c0.3,0.1,0.5,0.3,0.6,0.5c0.2,0.2,0.3,0.5,0.3,0.8c0.1,0.3,0.1,0.7,0.1,1.1v0.9h-2.6
		v1c0,0.1,0,0.2,0,0.3c0,0.1,0,0.2,0,0.3c0,0.1,0,0.2,0.1,0.3c0,0.1,0.1,0.1,0.1,0.2c0,0.1,0.1,0.1,0.2,0.1c0.1,0,0.1,0,0.2,0
		c0.2,0,0.4-0.1,0.4-0.2c0.1-0.1,0.1-0.4,0.1-0.6v-0.4h1.5V97c0,0.7-0.2,1.2-0.5,1.6C-5.6,98.9-6.1,99.1-6.8,99.1z M-7.4,95h1.1
		v-0.6c0-0.3,0-0.6-0.1-0.7c-0.1-0.1-0.2-0.2-0.4-0.2c-0.2,0-0.4,0.1-0.4,0.2c-0.1,0.2-0.1,0.5-0.1,0.9V95z"/>
	<path class="st6" d="M-3.6,91.3V90H-2v1.3H-3.6z M-3.6,99v-6.6h1.6V99H-3.6z"/>
	<path class="st6" d="M0.2,99.1c-0.4,0-0.7-0.1-0.8-0.4c-0.2-0.3-0.3-0.6-0.3-1v-5.3h1.6v5c0,0.2,0,0.4,0.1,0.5S1,98,1.1,98
		c0.2,0,0.4-0.1,0.7-0.3v-5.3h1.6V99H1.8v-0.6C1.3,98.9,0.8,99.1,0.2,99.1z"/>
	<path class="st6" d="M6.3,99.1c-0.5,0-1-0.2-1.3-0.5c-0.4-0.3-0.6-0.7-0.7-1.3l1.2-0.4c0.1,0.4,0.2,0.6,0.3,0.8
		C5.9,97.9,6.1,98,6.3,98c0.2,0,0.3-0.1,0.4-0.2c0.1-0.1,0.2-0.3,0.1-0.4c0-0.2-0.2-0.5-0.7-0.9l-0.9-0.8c-0.6-0.6-1-1.1-0.9-1.7
		c0-0.5,0.2-1,0.5-1.3c0.3-0.3,0.8-0.5,1.3-0.5c0.5,0,0.9,0.2,1.3,0.5c0.3,0.3,0.5,0.7,0.6,1.3l-1,0.4c-0.1-0.7-0.4-1-0.8-1
		c-0.2,0-0.3,0-0.4,0.2c-0.1,0.1-0.1,0.2-0.1,0.4c0,0.2,0.2,0.5,0.6,0.8l0.9,0.8c0.2,0.1,0.3,0.3,0.4,0.4C7.7,96,7.8,96.1,8,96.3
		c0.1,0.2,0.2,0.3,0.2,0.5c0.1,0.2,0.1,0.4,0.1,0.6c0,0.6-0.2,1-0.6,1.3C7.4,98.9,6.9,99.1,6.3,99.1z"/>
	<path class="st6" d="M9.1,99v-6.6h1.5V93c0.4-0.5,1-0.7,1.6-0.7c0.6,0,0.9,0.3,1.1,0.8c0.5-0.5,1-0.8,1.7-0.8
		c0.4,0,0.7,0.1,0.9,0.4c0.2,0.3,0.3,0.7,0.3,1.2V99h-1.5v-5c0-0.2,0-0.4-0.1-0.5c-0.1-0.1-0.2-0.1-0.4-0.1c-0.3,0-0.5,0.1-0.8,0.4
		c0,0,0,0,0,0.1c0,0,0,0.1,0,0.1V99h-1.5v-5c0-0.2,0-0.4-0.1-0.5c-0.1-0.1-0.2-0.1-0.4-0.1c-0.3,0-0.5,0.1-0.8,0.4V99H9.1z"/>
	<path class="st6" d="M19.3,99.1c-0.7,0-1.2-0.2-1.6-0.6c-0.3-0.4-0.5-1-0.5-1.7v-2.2c0-0.7,0.2-1.3,0.5-1.7
		c0.3-0.4,0.9-0.6,1.6-0.6c0.7,0,1.3,0.2,1.6,0.6c0.4,0.4,0.5,1,0.5,1.7v2.2c0,0.7-0.2,1.3-0.5,1.7C20.6,98.9,20,99.1,19.3,99.1z
		 M19.3,98c0.1,0,0.2,0,0.3-0.1c0.1-0.1,0.1-0.1,0.2-0.3c0-0.1,0.1-0.2,0.1-0.3c0-0.1,0-0.3,0-0.4v-2.4c0-0.1,0-0.3,0-0.3
		c0-0.1,0-0.2,0-0.3s-0.1-0.2-0.1-0.3c0-0.1-0.1-0.1-0.2-0.2c-0.1,0-0.2-0.1-0.3-0.1c-0.1,0-0.2,0-0.3,0.1c-0.1,0.1-0.1,0.1-0.2,0.3
		c0,0.1-0.1,0.2-0.1,0.3c0,0.1,0,0.3,0,0.4v2.4c0,0.1,0,0.3,0,0.3c0,0.1,0,0.2,0,0.3c0,0.1,0.1,0.2,0.1,0.3c0,0.1,0.1,0.1,0.2,0.2
		C19.1,98,19.2,98,19.3,98z"/>
	<path class="st6" d="M24,99.1c-0.5,0-0.9-0.2-1.2-0.6c-0.3-0.4-0.4-1-0.4-1.8v-1.9c0-0.4,0-0.7,0.1-1c0.1-0.3,0.1-0.5,0.3-0.8
		c0.1-0.2,0.3-0.4,0.5-0.6c0.2-0.1,0.5-0.2,0.8-0.2c0.4,0,0.8,0.2,1.2,0.5v-3.1h1.6V99h-1.6v-0.5C24.8,98.9,24.5,99.1,24,99.1z
		 M24.6,98c0.2,0,0.4-0.1,0.6-0.2v-4.2c-0.2-0.1-0.4-0.2-0.6-0.2c-0.2,0-0.4,0.1-0.5,0.3C24,93.9,24,94.1,24,94.4v2.4
		c0,0.2,0,0.4,0,0.6c0,0.2,0.1,0.3,0.2,0.4C24.3,97.9,24.4,98,24.6,98z"/>
	<path class="st6" d="M32.6,99.1c-0.3,0-0.6-0.1-0.8-0.2c-0.2-0.1-0.4-0.2-0.5-0.4c-0.1-0.2-0.2-0.4-0.2-0.6
		C31,97.7,31,97.4,31,97.1v-3.7h-0.7v-1H31v-1.9h1.6v1.9h1v1h-1v3.8c0,0.2,0,0.4,0.1,0.5c0.1,0.1,0.2,0.1,0.5,0.1c0.1,0,0.3,0,0.5,0
		V99C33.2,99.1,32.9,99.1,32.6,99.1z"/>
	<path class="st6" d="M36.6,99.1c-0.8,0-1.3-0.2-1.6-0.6c-0.3-0.4-0.5-1-0.5-1.9v-1.9c0-0.8,0.2-1.4,0.5-1.9
		c0.3-0.4,0.9-0.6,1.6-0.6c0.4,0,0.7,0.1,1,0.2c0.3,0.1,0.5,0.3,0.6,0.5c0.2,0.2,0.3,0.5,0.3,0.8c0.1,0.3,0.1,0.7,0.1,1.1v0.9H36v1
		c0,0.1,0,0.2,0,0.3c0,0.1,0,0.2,0,0.3c0,0.1,0,0.2,0.1,0.3s0.1,0.1,0.1,0.2c0,0.1,0.1,0.1,0.2,0.1c0.1,0,0.1,0,0.2,0
		c0.2,0,0.4-0.1,0.4-0.2c0.1-0.1,0.1-0.4,0.1-0.6v-0.4h1.5V97c0,0.7-0.2,1.2-0.5,1.6C37.7,98.9,37.2,99.1,36.6,99.1z M36,95h1.1
		v-0.6c0-0.3,0-0.6-0.1-0.7c-0.1-0.1-0.2-0.2-0.4-0.2c-0.2,0-0.4,0.1-0.4,0.2C36,93.8,36,94.1,36,94.6V95z"/>
	<path class="st6" d="M39.7,99v-6.6h1.5V93c0.4-0.5,1-0.7,1.6-0.7c0.6,0,0.9,0.3,1.1,0.8c0.5-0.5,1-0.8,1.7-0.8
		c0.4,0,0.7,0.1,0.9,0.4c0.2,0.3,0.3,0.7,0.3,1.2V99h-1.5v-5c0-0.2,0-0.4-0.1-0.5c-0.1-0.1-0.2-0.1-0.4-0.1c-0.3,0-0.5,0.1-0.8,0.4
		c0,0,0,0,0,0.1c0,0,0,0.1,0,0.1V99h-1.5v-5c0-0.2,0-0.4-0.1-0.5c-0.1-0.1-0.2-0.1-0.4-0.1c-0.3,0-0.5,0.1-0.8,0.4V99H39.7z"/>
	<path class="st6" d="M47.9,101.2v-8.8h1.6v0.5c0.4-0.4,0.9-0.6,1.3-0.6c0.2,0,0.4,0.1,0.6,0.2c0.2,0.1,0.3,0.2,0.4,0.4
		c0.1,0.2,0.2,0.3,0.3,0.5c0.1,0.2,0.1,0.4,0.1,0.6c0,0.2,0,0.4,0,0.6v2.2c0,0.3,0,0.6-0.1,0.9c-0.1,0.3-0.1,0.5-0.3,0.8
		c-0.1,0.2-0.3,0.4-0.5,0.5c-0.2,0.1-0.5,0.2-0.7,0.2c-0.4,0-0.8-0.2-1.2-0.6v2.7H47.9z M50.1,98c0.1,0,0.2,0,0.3-0.1
		c0.1-0.1,0.1-0.2,0.2-0.3c0-0.1,0.1-0.3,0.1-0.4c0-0.1,0-0.3,0-0.5v-2.3c0-0.2,0-0.3,0-0.4c0-0.1,0-0.2-0.1-0.3
		c0-0.1-0.1-0.2-0.2-0.3c-0.1-0.1-0.2-0.1-0.3-0.1c-0.2,0-0.4,0.1-0.6,0.3v4.1C49.7,97.9,49.9,98,50.1,98z"/>
	<path class="st6" d="M55.3,99.1c-0.7,0-1.2-0.2-1.6-0.6c-0.3-0.4-0.5-1-0.5-1.7v-2.2c0-0.7,0.2-1.3,0.5-1.7
		c0.3-0.4,0.9-0.6,1.6-0.6c0.7,0,1.3,0.2,1.6,0.6c0.4,0.4,0.5,1,0.5,1.7v2.2c0,0.7-0.2,1.3-0.5,1.7C56.6,98.9,56,99.1,55.3,99.1z
		 M55.3,98c0.1,0,0.2,0,0.3-0.1c0.1-0.1,0.1-0.1,0.2-0.3c0-0.1,0.1-0.2,0.1-0.3c0-0.1,0-0.3,0-0.4v-2.4c0-0.1,0-0.3,0-0.3
		c0-0.1,0-0.2,0-0.3s-0.1-0.2-0.1-0.3c0-0.1-0.1-0.1-0.2-0.2c-0.1,0-0.2-0.1-0.3-0.1c-0.1,0-0.2,0-0.3,0.1c-0.1,0.1-0.1,0.1-0.2,0.3
		c0,0.1-0.1,0.2-0.1,0.3c0,0.1,0,0.3,0,0.4v2.4c0,0.1,0,0.3,0,0.3c0,0.1,0,0.2,0,0.3c0,0.1,0.1,0.2,0.1,0.3c0,0.1,0.1,0.1,0.2,0.2
		C55.1,98,55.2,98,55.3,98z"/>
	<path class="st6" d="M58.6,99v-6.6h1.6v1c0.2-0.4,0.4-0.7,0.7-0.8c0.2-0.2,0.5-0.3,0.7-0.3c0.1,0,0.2,0,0.2,0v1.5
		c-0.2-0.1-0.4-0.1-0.5-0.1c-0.2,0-0.4,0.1-0.6,0.2c-0.2,0.1-0.3,0.3-0.5,0.5V99H58.6z"/>
</g>
<g class="st5">
	<path class="st7" d="M37.8,131.5h-66.1c-5.1,0-9.2-4.1-9.2-9.2l0,0c0-5.1,4.1-9.2,9.2-9.2h66.1c5.1,0,9.2,4.1,9.2,9.2l0,0
		C47,127.3,42.9,131.5,37.8,131.5z"/>
	<g class="st8">
		<path class="st2" d="M-18.5,126.4v-7.8h1.4v6.8h1.9v1H-18.5z"/>
		<path class="st2" d="M-14.4,126.4v-7.8h3.3v1H-13v2.2h1.5v1H-13v2.6h1.9v1H-14.4z"/>
		<path class="st2" d="M-10.7,126.4l1.6-7.8h1.5l1.6,7.8h-1.3l-0.3-1.8h-1.3l-0.3,1.8H-10.7z M-8.9,123.6h1l-0.5-3.2L-8.9,123.6z"/>
		<path class="st2" d="M-5.3,126.4v-7.8h1.8c0.4,0,0.8,0,1.1,0.1c0.3,0.1,0.5,0.2,0.8,0.3c0.2,0.2,0.4,0.4,0.5,0.6
			c0.1,0.3,0.2,0.6,0.2,1c0,0.5-0.1,0.9-0.2,1.2c-0.1,0.3-0.4,0.5-0.7,0.7l1.1,3.8h-1.4l-0.9-3.6h-0.6v3.6H-5.3z M-3.9,121.9h0.3
			c0.4,0,0.7-0.1,0.9-0.3c0.2-0.2,0.3-0.5,0.3-0.9c0-0.4-0.1-0.7-0.2-0.9c-0.2-0.2-0.4-0.3-0.8-0.3h-0.4V121.9z"/>
		<path class="st2" d="M0,126.4v-7.8h1l1.9,4.4v-4.4h1.2v7.8H3.1l-1.9-4.6v4.6H0z"/>
		<path class="st2" d="M7.6,126.4l0.1-7.8h1.5l1.1,5.5l1.2-5.5h1.4l0.1,7.8h-1.1l-0.1-5.4l-1.1,5.4H9.9L8.7,121l-0.1,5.4H7.6z"/>
		<path class="st2" d="M16.3,126.4c-0.8,0-1.4-0.2-1.7-0.7c-0.3-0.4-0.5-1.1-0.5-1.9V121c0-0.4,0-0.8,0.1-1.1
			c0.1-0.3,0.2-0.6,0.4-0.8c0.2-0.2,0.4-0.4,0.7-0.5c0.3-0.1,0.6-0.2,1.1-0.2c0.8,0,1.4,0.2,1.7,0.6c0.3,0.4,0.5,1.1,0.5,1.9v2.9
			c0,0.4,0,0.8-0.1,1.1c-0.1,0.3-0.2,0.6-0.4,0.8c-0.2,0.2-0.4,0.4-0.7,0.5C17,126.4,16.7,126.4,16.3,126.4z M15.9,125.3
			c0.1,0,0.2,0.1,0.4,0.1c0.1,0,0.3,0,0.4-0.1c0.1,0,0.2-0.1,0.2-0.2c0.1-0.1,0.1-0.2,0.1-0.3c0-0.1,0.1-0.2,0.1-0.3
			c0-0.1,0-0.2,0-0.4v-3.5c0-0.2,0-0.3,0-0.5c0-0.1-0.1-0.2-0.1-0.4c-0.1-0.1-0.1-0.2-0.2-0.2c-0.1-0.1-0.2-0.1-0.4-0.1
			c-0.2,0-0.3,0-0.4,0.1c-0.1,0.1-0.2,0.1-0.2,0.2c-0.1,0.1-0.1,0.2-0.1,0.4c0,0.1,0,0.3,0,0.5v3.5c0,0.1,0,0.3,0,0.4
			c0,0.1,0,0.2,0.1,0.3c0,0.1,0.1,0.2,0.1,0.3C15.7,125.2,15.8,125.3,15.9,125.3z"/>
		<path class="st2" d="M19.6,126.4v-7.8h1.8c0.4,0,0.8,0,1.1,0.1c0.3,0.1,0.5,0.2,0.8,0.3c0.2,0.2,0.4,0.4,0.5,0.6
			c0.1,0.3,0.2,0.6,0.2,1c0,0.5-0.1,0.9-0.2,1.2c-0.1,0.3-0.4,0.5-0.7,0.7l1.1,3.8h-1.4l-0.9-3.6H21v3.6H19.6z M21,121.9h0.3
			c0.4,0,0.7-0.1,0.9-0.3c0.2-0.2,0.3-0.5,0.3-0.9c0-0.4-0.1-0.7-0.2-0.9c-0.2-0.2-0.4-0.3-0.8-0.3H21V121.9z"/>
		<path class="st2" d="M24.9,126.4v-7.8h3.3v1h-1.8v2.2h1.5v1h-1.5v2.6h1.9v1H24.9z"/>
	</g>
</g>
<g class="st5">
	<path class="st9" d="M-108,64.3V44h4.7c1.2,0,2.2,0.1,3.1,0.4c0.8,0.2,1.5,0.6,2,1.2c0.5,0.5,0.9,1.2,1.1,2s0.3,1.7,0.3,2.8v7.3
		c0,1.2-0.1,2.1-0.3,2.9c-0.2,0.8-0.6,1.5-1,2.1c-0.5,0.6-1.1,1-1.9,1.2c-0.8,0.3-1.8,0.4-3,0.4H-108z M-104.3,61.7h1.1
		c0.4,0,0.7,0,1-0.1c0.3-0.1,0.5-0.1,0.7-0.2c0.2-0.1,0.3-0.2,0.5-0.4c0.1-0.2,0.2-0.4,0.3-0.6c0.1-0.2,0.1-0.4,0.1-0.8
		c0-0.3,0.1-0.6,0.1-0.9c0-0.2,0-0.6,0-1.1v-7.4c0-0.5,0-0.9,0-1.2c0-0.3-0.1-0.6-0.1-0.9c-0.1-0.3-0.2-0.5-0.3-0.7
		s-0.3-0.3-0.5-0.4c-0.2-0.1-0.4-0.2-0.7-0.3c-0.3-0.1-0.6-0.1-1.1-0.1h-1V61.7z"/>
	<path class="st9" d="M-95.4,64.3l4.1-20.3h3.9l4.1,20.3h-3.4l-0.8-4.7h-3.5l-0.8,4.7H-95.4z M-90.7,57.2h2.7l-1.4-8.3L-90.7,57.2z"
		/>
	<path class="st9" d="M-80.1,64.3V46.7h-3.4V44h10.4v2.7h-3.3v17.6H-80.1z"/>
	<path class="st9" d="M-72.6,64.3l4.1-20.3h3.9l4.1,20.3H-64l-0.8-4.7h-3.5l-0.8,4.7H-72.6z M-67.9,57.2h2.7l-1.4-8.3L-67.9,57.2z"
		/>
	<path class="st9" d="M-58.5,64.3V44h5c0.9,0,1.8,0.1,2.5,0.3c0.7,0.2,1.3,0.4,1.9,0.8c0.5,0.4,1,0.9,1.2,1.6
		c0.3,0.7,0.4,1.5,0.4,2.5c0,2.5-1,3.9-3,4.2c1.2,0.2,2.1,0.8,2.7,1.6c0.6,0.8,0.9,2,0.9,3.5c0,1.9-0.5,3.4-1.4,4.4
		c-1,1-2.4,1.5-4.2,1.5H-58.5z M-54.9,52.3h1.2c1.1,0,1.8-0.2,2.2-0.7c0.4-0.5,0.6-1.2,0.6-2.3c0-0.6-0.1-1-0.2-1.4
		c-0.1-0.4-0.4-0.6-0.7-0.8c-0.3-0.2-0.7-0.3-1.1-0.4c-0.4-0.1-0.9-0.1-1.5-0.1h-0.5V52.3z M-54.9,61.7h1.4c1.1,0,1.9-0.3,2.3-0.8
		c0.4-0.5,0.6-1.4,0.6-2.5c0-1.2-0.2-2.1-0.7-2.7c-0.5-0.5-1.3-0.8-2.4-0.8h-1.2V61.7z"/>
	<path class="st9" d="M-45.7,64.3l4.1-20.3h3.9l4.1,20.3h-3.4l-0.8-4.7h-3.5l-0.8,4.7H-45.7z M-41,57.2h2.7l-1.4-8.3L-41,57.2z"/>
	<path class="st9" d="M-26.5,64.5c-3.6,0-5.4-2.1-5.6-6.2l3.2-0.7c0.1,2.7,0.8,4,2.3,4c0.6,0,1-0.2,1.3-0.5c0.3-0.3,0.4-0.8,0.4-1.4
		c0-0.6-0.1-1.1-0.3-1.5c-0.2-0.5-0.4-0.9-0.7-1.2c-0.3-0.3-0.7-0.7-1.2-1.1l-2.7-2.3c-0.8-0.7-1.4-1.4-1.7-2.1
		c-0.4-0.7-0.6-1.7-0.6-2.8c0-1.6,0.5-2.8,1.4-3.7c0.9-0.9,2.2-1.3,3.8-1.3c0.7,0,1.4,0.1,2,0.3c0.6,0.2,1,0.4,1.4,0.8
		c0.4,0.3,0.7,0.7,0.9,1.2c0.2,0.5,0.4,1,0.6,1.5c0.1,0.5,0.2,1.1,0.3,1.7l-3.2,0.6c0-0.4,0-0.8-0.1-1.1c0-0.3-0.1-0.6-0.2-0.9
		c-0.1-0.3-0.2-0.6-0.3-0.8c-0.1-0.2-0.3-0.3-0.6-0.5c-0.2-0.1-0.5-0.2-0.8-0.1c-0.5,0-1,0.2-1.3,0.5c-0.3,0.3-0.4,0.8-0.4,1.3
		c0,0.7,0.1,1.2,0.4,1.6c0.3,0.4,0.7,0.9,1.2,1.4l2.6,2.3c0.4,0.4,0.8,0.8,1.2,1.2s0.6,0.8,0.9,1.3c0.3,0.5,0.5,1,0.7,1.6
		c0.2,0.6,0.2,1.2,0.2,1.8c0,1.5-0.5,2.7-1.4,3.6C-23.8,64.1-25,64.5-26.5,64.5z"/>
	<path class="st9" d="M-19.3,64.3V44h8.5v2.6h-4.8v5.8h3.8V55h-3.8v6.7h4.9v2.6H-19.3z"/>
</g>
<circle class="st10" cx="-46.9" cy="122.2" r="3.3"/>
<circle class="st11" cx="-59.4" cy="122.2" r="3.3"/>
<g>
	<g>
		<polygon class="st12" points="99.6,312.8 77,299.8 99.6,286.8 122.2,299.8 		"/>
		<path class="st2" d="M99.6,304.8c-0.3,0-0.6-0.1-0.9-0.2l-22.6-13c-0.5-0.3-0.9-0.9-0.9-1.5c0-0.6,0.3-1.2,0.9-1.5l22.6-13
			c0.5-0.3,1.2-0.3,1.7,0l22.6,13c0.5,0.3,0.9,0.9,0.9,1.5c0,0.6-0.3,1.2-0.9,1.5l-22.6,13C100.2,304.7,99.9,304.8,99.6,304.8z
			 M80.5,290l19.2,11.1l19.2-11.1L99.6,279L80.5,290z"/>
		<radialGradient id="SVGID_1_" cx="97.4752" cy="265.9538" r="33.6687" gradientUnits="userSpaceOnUse">
			<stop  offset="0" style="stop-color:#274F89"/>
			<stop  offset="1" style="stop-color:#173D7A"/>
		</radialGradient>
		<polygon class="st13" points="122.2,279.8 99.6,292.9 99.6,266.8 122.2,253.7 		"/>
		<linearGradient id="SVGID_2_" gradientUnits="userSpaceOnUse" x1="77.0228" y1="253.7368" x2="136.6003" y2="253.7368">
			<stop  offset="0" style="stop-color:#D4ECFF"/>
			<stop  offset="0.2385" style="stop-color:#D0EAFE"/>
			<stop  offset="0.4599" style="stop-color:#C5E2F9"/>
			<stop  offset="0.6745" style="stop-color:#B2D6F2"/>
			<stop  offset="0.8837" style="stop-color:#98C4E7"/>
			<stop  offset="1" style="stop-color:#86B8E0"/>
		</linearGradient>
		<polygon class="st14" points="99.6,266.8 77,253.7 99.6,240.7 122.2,253.7 		"/>
		<radialGradient id="SVGID_3_" cx="49.0695" cy="231.113" r="60.8594" gradientUnits="userSpaceOnUse">
			<stop  offset="0" style="stop-color:#699DD1"/>
			<stop  offset="0.2662" style="stop-color:#6396CC"/>
			<stop  offset="0.6412" style="stop-color:#5184BD"/>
			<stop  offset="1" style="stop-color:#396CAA"/>
		</radialGradient>
		<polygon class="st15" points="99.6,292.9 77,279.8 77,253.7 99.6,266.8 		"/>
	</g>
	<polygon class="st2" points="91.5,278.8 85.2,275.1 85.2,267.8 91.5,271.5 	"/>
</g>
<g>
	<g>
		<polygon class="st12" points="352.6,172.4 330,159.3 352.6,146.3 375.1,159.3 		"/>
		<path class="st2" d="M352.6,164.3c-0.3,0-0.6-0.1-0.9-0.2l-22.6-13c-0.5-0.3-0.9-0.9-0.9-1.5c0-0.6,0.3-1.2,0.9-1.5l22.6-13
			c0.5-0.3,1.2-0.3,1.7,0l22.6,13c0.5,0.3,0.9,0.9,0.9,1.5c0,0.6-0.3,1.2-0.9,1.5l-22.6,13C353.1,164.2,352.9,164.3,352.6,164.3z
			 M333.4,149.5l19.2,11.1l19.2-11.1l-19.2-11.1L333.4,149.5z"/>
		<radialGradient id="SVGID_4_" cx="350.417" cy="125.4575" r="33.6687" gradientUnits="userSpaceOnUse">
			<stop  offset="0" style="stop-color:#274F89"/>
			<stop  offset="1" style="stop-color:#173D7A"/>
		</radialGradient>
		<polygon class="st16" points="375.1,139.3 352.6,152.4 352.6,126.3 375.1,113.2 		"/>
		<linearGradient id="SVGID_5_" gradientUnits="userSpaceOnUse" x1="329.9646" y1="113.2404" x2="389.5421" y2="113.2404">
			<stop  offset="0" style="stop-color:#D4ECFF"/>
			<stop  offset="0.2385" style="stop-color:#D0EAFE"/>
			<stop  offset="0.4599" style="stop-color:#C5E2F9"/>
			<stop  offset="0.6745" style="stop-color:#B2D6F2"/>
			<stop  offset="0.8837" style="stop-color:#98C4E7"/>
			<stop  offset="1" style="stop-color:#86B8E0"/>
		</linearGradient>
		<polygon class="st17" points="352.6,126.3 330,113.2 352.6,100.2 375.1,113.2 		"/>
		<radialGradient id="SVGID_6_" cx="302.0113" cy="90.6167" r="60.8594" gradientUnits="userSpaceOnUse">
			<stop  offset="0" style="stop-color:#699DD1"/>
			<stop  offset="0.2662" style="stop-color:#6396CC"/>
			<stop  offset="0.6412" style="stop-color:#5184BD"/>
			<stop  offset="1" style="stop-color:#396CAA"/>
		</radialGradient>
		<polygon class="st18" points="352.6,152.4 330,139.3 330,113.2 352.6,126.3 		"/>
	</g>
	<polygon class="st2" points="344.4,138.3 338.1,134.6 338.1,127.3 344.4,131 	"/>
	<polygon class="st2" points="346.2,113.3 352.5,109.6 358.9,113.2 352.6,116.9 	"/>
</g>
<g>
	<g>
		<polygon class="st12" points="352.6,312.8 330,299.8 352.6,286.8 375.1,299.8 		"/>
		<path class="st2" d="M352.6,304.8c-0.3,0-0.6-0.1-0.9-0.2l-22.6-13c-0.5-0.3-0.9-0.9-0.9-1.5c0-0.6,0.3-1.2,0.9-1.5l22.6-13
			c0.5-0.3,1.2-0.3,1.7,0l22.6,13c0.5,0.3,0.9,0.9,0.9,1.5c0,0.6-0.3,1.2-0.9,1.5l-22.6,13C353.1,304.7,352.9,304.8,352.6,304.8z
			 M333.4,290l19.2,11.1l19.2-11.1L352.6,279L333.4,290z"/>
		<radialGradient id="SVGID_7_" cx="350.4167" cy="265.9538" r="33.6687" gradientUnits="userSpaceOnUse">
			<stop  offset="0" style="stop-color:#274F89"/>
			<stop  offset="1" style="stop-color:#173D7A"/>
		</radialGradient>
		<polygon class="st19" points="375.1,279.8 352.6,292.9 352.6,266.8 375.1,253.7 		"/>
		<linearGradient id="SVGID_8_" gradientUnits="userSpaceOnUse" x1="329.9643" y1="253.7368" x2="389.5418" y2="253.7368">
			<stop  offset="0" style="stop-color:#D4ECFF"/>
			<stop  offset="0.2385" style="stop-color:#D0EAFE"/>
			<stop  offset="0.4599" style="stop-color:#C5E2F9"/>
			<stop  offset="0.6745" style="stop-color:#B2D6F2"/>
			<stop  offset="0.8837" style="stop-color:#98C4E7"/>
			<stop  offset="1" style="stop-color:#86B8E0"/>
		</linearGradient>
		<polygon class="st20" points="352.6,266.8 330,253.7 352.6,240.7 375.1,253.7 		"/>
		<radialGradient id="SVGID_9_" cx="302.011" cy="231.113" r="60.8594" gradientUnits="userSpaceOnUse">
			<stop  offset="0" style="stop-color:#699DD1"/>
			<stop  offset="0.2662" style="stop-color:#6396CC"/>
			<stop  offset="0.6412" style="stop-color:#5184BD"/>
			<stop  offset="1" style="stop-color:#396CAA"/>
		</radialGradient>
		<polygon class="st21" points="352.6,292.9 330,279.8 330,253.7 352.6,266.8 		"/>
	</g>
	<polygon class="st2" points="344.4,278.8 338.1,275.1 338.1,267.8 344.4,271.5 	"/>
</g>
<g>
	<g>
		<polygon class="st12" points="99.6,172.4 77,159.3 99.6,146.3 122.2,159.3 		"/>
		<path class="st2" d="M99.6,164.3c-0.3,0-0.6-0.1-0.9-0.2l-22.6-13c-0.5-0.3-0.9-0.9-0.9-1.5c0-0.6,0.3-1.2,0.9-1.5l22.6-13
			c0.5-0.3,1.2-0.3,1.7,0l22.6,13c0.5,0.3,0.9,0.9,0.9,1.5c0,0.6-0.3,1.2-0.9,1.5l-22.6,13C100.2,164.2,99.9,164.3,99.6,164.3z
			 M80.5,149.5l19.2,11.1l19.2-11.1l-19.2-11.1L80.5,149.5z"/>
		<radialGradient id="SVGID_10_" cx="97.4752" cy="125.4575" r="33.6687" gradientUnits="userSpaceOnUse">
			<stop  offset="0" style="stop-color:#274F89"/>
			<stop  offset="1" style="stop-color:#173D7A"/>
		</radialGradient>
		<polygon class="st22" points="122.2,139.3 99.6,152.4 99.6,126.3 122.2,113.2 		"/>
		<linearGradient id="SVGID_11_" gradientUnits="userSpaceOnUse" x1="77.0228" y1="113.2404" x2="136.6003" y2="113.2404">
			<stop  offset="0" style="stop-color:#D4ECFF"/>
			<stop  offset="0.2385" style="stop-color:#D0EAFE"/>
			<stop  offset="0.4599" style="stop-color:#C5E2F9"/>
			<stop  offset="0.6745" style="stop-color:#B2D6F2"/>
			<stop  offset="0.8837" style="stop-color:#98C4E7"/>
			<stop  offset="1" style="stop-color:#86B8E0"/>
		</linearGradient>
		<polygon class="st23" points="99.6,126.3 77,113.2 99.6,100.2 122.2,113.2 		"/>
		<radialGradient id="SVGID_12_" cx="49.0695" cy="90.6167" r="60.8594" gradientUnits="userSpaceOnUse">
			<stop  offset="0" style="stop-color:#699DD1"/>
			<stop  offset="0.2662" style="stop-color:#6396CC"/>
			<stop  offset="0.6412" style="stop-color:#5184BD"/>
			<stop  offset="1" style="stop-color:#396CAA"/>
		</radialGradient>
		<polygon class="st24" points="99.6,152.4 77,139.3 77,113.2 99.6,126.3 		"/>
	</g>
	<polygon class="st2" points="91.5,138.3 85.2,134.6 85.2,127.3 91.5,131 	"/>
</g>
<rect x="270.2" y="150.4" transform="matrix(0.8661 -0.4999 0.4999 0.8661 -34.7901 174.3744)" class="st2" width="75.9" height="3.4"/>
<g>
	<path class="st12" d="M220.8,264.5L162.8,231c-2.1-1.2-1.9-3.4,0.6-4.8l61.4-35.5c2.5-1.4,6.2-1.6,8.3-0.3l57.9,33.4
		c2.1,1.2,1.9,3.4-0.6,4.8L229,264.1C226.6,265.5,222.9,265.7,220.8,264.5z"/>
	<path class="st2" d="M224.4,253.5c-1.7,0-3.2-0.3-4.5-1L162,219c-1.5-0.8-2.3-2.1-2.3-3.6c0-1.6,1.1-3.1,2.9-4.2l61.4-35.5
		c3-1.7,7.4-1.9,10-0.3l57.9,33.4c1.5,0.8,2.3,2.1,2.3,3.6c0,1.6-1.1,3.1-2.9,4.2l-61.4,35.5C228.3,253,226.3,253.5,224.4,253.5z
		 M221.6,249.5c1.6,0.9,4.7,0.8,6.6-0.3l61.4-35.5c0.9-0.5,1.2-1,1.2-1.2c0-0.1-0.2-0.4-0.6-0.6l-57.9-33.4
		c-1.6-0.9-4.7-0.8-6.6,0.3l-61.4,35.5c-0.9,0.5-1.2,1-1.2,1.2c0,0.1,0.2,0.4,0.6,0.6L221.6,249.5z"/>
	<g>
		<g>
			<g>
				<g>
					<g>
						<g>
							<radialGradient id="SVGID_13_" cx="201.9936" cy="121.0713" r="121.1459" gradientUnits="userSpaceOnUse">
								<stop  offset="0" style="stop-color:#396CAA"/>
								<stop  offset="1" style="stop-color:#274F89"/>
							</radialGradient>
							<path class="st25" d="M224.9,88.4c0,0-31.8,3-51,4.5l50.8,144.7l67.2-38.8c0,0,0,0,0,0l0.1-0.1l0,0c0.8-0.5,1.4-1.7,1.4-3.3
								V54c0-1.5-0.4-3.1-1.2-4.5L224.9,88.4z"/>
							<linearGradient id="SVGID_14_" gradientUnits="userSpaceOnUse" x1="163.8873" y1="35.1285" x2="276.8502" y2="103.9547">
								<stop  offset="0" style="stop-color:#D4ECFF"/>
								<stop  offset="0.2385" style="stop-color:#D0EAFE"/>
								<stop  offset="0.4599" style="stop-color:#C5E2F9"/>
								<stop  offset="0.6745" style="stop-color:#B2D6F2"/>
								<stop  offset="0.8837" style="stop-color:#98C4E7"/>
								<stop  offset="1" style="stop-color:#86B8E0"/>
							</linearGradient>
							<path class="st26" d="M289.4,46l-59.1-34.1c-1-0.6-2-0.6-2.7-0.2l0,0l-67.5,38.9l3.2,11.8l16.9,48.2l3.2,1.8l109-62.9
								C291.6,48,290.5,46.7,289.4,46z"/>
							<path class="st27" d="M221.9,237.5l-59.1-34.1c-2.3-1.3-4.2-4.9-4.2-8V54c0-3.1,1.9-4.5,4.2-3.1l59.1,34.1
								c2.3,1.3,4.2,4.9,4.2,8v141.4C226.1,237.4,224.2,238.8,221.9,237.5z"/>
							<path class="st2" d="M223.2,84.2l-59.1-34.1c-1.3-0.8-2.5-0.6-3.3,0.2c0.6-0.1,1.3,0,2,0.5l59.1,34.1c2.3,1.3,4.2,4.9,4.2,8
								v141.4c0,1.3-0.3,2.3-0.9,2.9c1.3-0.2,2.2-1.5,2.2-3.6V92.2C227.4,89.1,225.5,85.6,223.2,84.2z"/>
							
								<linearGradient id="SVGID_15_" gradientUnits="userSpaceOnUse" x1="-138.8151" y1="1285.0504" x2="-72.4296" y2="1270.0073" gradientTransform="matrix(0.866 0.5 0 1.1547 280.8294 -1279.6509)">
								<stop  offset="0" style="stop-color:#3919BB"/>
								<stop  offset="1" style="stop-color:#6507FA"/>
							</linearGradient>
							<path class="st28" d="M218.2,229l-51.7-29.8c-2-1.2-3.6-4.3-3.6-7V60.8c0-2.7,1.6-3.9,3.6-2.8l51.7,29.8c2,1.2,3.6,4.3,3.6,7
								v131.4C221.8,228.9,220.2,230.1,218.2,229z"/>
							
								<linearGradient id="SVGID_16_" gradientUnits="userSpaceOnUse" x1="-138.8151" y1="1285.0504" x2="-72.4296" y2="1270.0073" gradientTransform="matrix(0.866 0.5 0 1.1547 280.8294 -1279.6509)">
								<stop  offset="0" style="stop-color:#3919BB"/>
								<stop  offset="1" style="stop-color:#6507FA"/>
							</linearGradient>
							<path class="st29" d="M218.2,229l-51.7-29.8c-2-1.2-3.6-4.3-3.6-7V60.8c0-2.7,1.6-3.9,3.6-2.8l51.7,29.8c2,1.2,3.6,4.3,3.6,7
								v131.4C221.8,228.9,220.2,230.1,218.2,229z"/>
							<path class="st30" d="M218.2,229l-51.7-29.8c-2-1.2-3.6-4.3-3.6-7V60.8c0-2.7,1.6-3.9,3.6-2.8l51.7,29.8c2,1.2,3.6,4.3,3.6,7
								v131.4C221.8,228.9,220.2,230.1,218.2,229z"/>
							<path class="st31" d="M219.9,228l-51.7-29.8c-2-1.2-3.6-4.3-3.6-7V59.8c0-0.9,0.2-1.7,0.5-2.2c-1.3,0-2.2,1.2-2.2,3.2v131.4
								c0,2.7,1.6,5.8,3.6,7l51.7,29.8c1.3,0.8,2.5,0.5,3.1-0.6C220.9,228.4,220.4,228.3,219.9,228z"/>
						</g>
					</g>
				</g>
				<g>
					<g>
						<path class="st30" d="M218.2,168.7L199,157.6l-30.6,17.7l53.5,30.9v-30.5C221.8,172.9,220.2,169.8,218.2,168.7z"/>
						<path class="st30" d="M218.2,141.7L199,130.7l-30.6,17.7l53.5,30.9v-30.5C221.8,146,220.2,142.9,218.2,141.7z"/>
						<path class="st30" d="M218.2,114.8L199,103.7l-30.6,17.7l53.5,30.9v-30.5C221.8,119.1,220.2,116,218.2,114.8z"/>
						<path class="st30" d="M218.2,87.9L199,76.8l-30.6,17.7l53.5,30.9V94.9C221.8,92.2,220.2,89.1,218.2,87.9z"/>
						<path class="st30" d="M218.2,87.9l-42.5-24.5l-7.3,4.2l53.5,30.9v-3.6C221.8,92.2,220.2,89.1,218.2,87.9z"/>
					</g>
					<polygon class="st27" points="221.8,98.5 168.4,67.6 168.4,84.6 221.8,115.5 					"/>
					<polygon class="st27" points="221.8,125.4 168.4,94.5 168.4,111.5 221.8,142.4 					"/>
					<polygon class="st27" points="221.8,152.3 168.4,121.4 168.4,138.4 221.8,169.3 					"/>
					<polygon class="st27" points="221.8,179.2 168.4,148.3 168.4,165.4 221.8,196.2 					"/>
					<polygon class="st27" points="221.8,206.1 168.4,175.3 168.4,192.3 221.8,223.1 					"/>
				</g>
				<g>
					<path class="st30" d="M217.1,109.4l-40.3-23.3c-1.1-0.7-2.1-2.4-2.1-3.9v-4.6c0-1.5,0.9-2.2,2.1-1.6l40.3,23.3
						c1.1,0.7,2.1,2.4,2.1,3.9v4.6C219.2,109.4,218.3,110.1,217.1,109.4z"/>
					<path class="st32" d="M178.9,85.3c-1.1-0.7-2.1-2.4-2.1-3.9v-4.6c0-0.2,0-0.5,0.1-0.7l-0.1,0c-1.1-0.7-2.1,0-2.1,1.6v4.6
						c0,1.5,0.9,3.3,2.1,3.9l40.3,23.3c1,0.6,1.8,0.1,2-0.9L178.9,85.3z"/>
					<path class="st2" d="M204.5,96.9l-24.2-14c-0.4-0.2-0.7-0.9-0.7-1.4l0,0c0-0.5,0.3-0.8,0.7-0.5l24.2,14
						c0.4,0.2,0.7,0.9,0.7,1.4l0,0C205.2,96.9,204.9,97.2,204.5,96.9z"/>
				</g>
				<g>
					<path class="st30" d="M217.1,136.2l-40.3-23.3c-1.1-0.7-2.1-2.4-2.1-3.9v-4.6c0-1.5,0.9-2.2,2.1-1.6l40.3,23.3
						c1.1,0.7,2.1,2.4,2.1,3.9v4.6C219.2,136.1,218.3,136.8,217.1,136.2z"/>
					<path class="st32" d="M178.9,112c-1.1-0.7-2.1-2.4-2.1-3.9v-4.6c0-0.2,0-0.5,0.1-0.7l-0.1,0c-1.1-0.7-2.1,0-2.1,1.6v4.6
						c0,1.5,0.9,3.3,2.1,3.9l40.3,23.3c1,0.6,1.8,0.1,2-0.9L178.9,112z"/>
					<path class="st2" d="M204.5,123.7l-24.2-14c-0.4-0.2-0.7-0.9-0.7-1.4l0,0c0-0.5,0.3-0.8,0.7-0.5l24.2,14
						c0.4,0.2,0.7,0.9,0.7,1.4l0,0C205.2,123.7,204.9,123.9,204.5,123.7z"/>
				</g>
				<g>
					<path class="st30" d="M217.1,163.2l-40.3-23.3c-1.1-0.7-2.1-2.4-2.1-3.9v-4.6c0-1.5,0.9-2.2,2.1-1.6l40.3,23.3
						c1.1,0.7,2.1,2.4,2.1,3.9v4.6C219.2,163.1,218.3,163.8,217.1,163.2z"/>
					<path class="st32" d="M178.9,139c-1.1-0.7-2.1-2.4-2.1-3.9v-4.6c0-0.2,0-0.5,0.1-0.7l-0.1,0c-1.1-0.7-2.1,0-2.1,1.6v4.6
						c0,1.5,0.9,3.3,2.1,3.9l40.3,23.3c1,0.6,1.8,0.1,2-0.9L178.9,139z"/>
					<path class="st33" d="M204.5,150.7l-24.2-14c-0.4-0.2-0.7-0.9-0.7-1.4l0,0c0-0.5,0.3-0.8,0.7-0.5l24.2,14
						c0.4,0.2,0.7,0.9,0.7,1.4l0,0C205.2,150.7,204.9,150.9,204.5,150.7z"/>
				</g>
				<g>
					<path class="st30" d="M217.1,190.4l-40.3-23.3c-1.1-0.7-2.1-2.4-2.1-3.9v-4.6c0-1.5,0.9-2.2,2.1-1.6l40.3,23.3
						c1.1,0.7,2.1,2.4,2.1,3.9v4.6C219.2,190.4,218.3,191.1,217.1,190.4z"/>
					<path class="st32" d="M178.9,166.3c-1.1-0.7-2.1-2.4-2.1-3.9v-4.6c0-0.2,0-0.5,0.1-0.7l-0.1,0c-1.1-0.7-2.1,0-2.1,1.6v4.6
						c0,1.5,0.9,3.3,2.1,3.9l40.3,23.3c1,0.6,1.8,0.1,2-0.9L178.9,166.3z"/>
					<path class="st34" d="M204.5,177.9l-24.2-14c-0.4-0.2-0.7-0.9-0.7-1.4l0,0c0-0.5,0.3-0.8,0.7-0.5l24.2,14
						c0.4,0.2,0.7,0.9,0.7,1.4l0,0C205.2,177.9,204.9,178.2,204.5,177.9z"/>
				</g>
				<g>
					<path class="st30" d="M217.1,217.1l-40.3-23.3c-1.1-0.7-2.1-2.4-2.1-3.9v-4.6c0-1.5,0.9-2.2,2.1-1.6l40.3,23.3
						c1.1,0.7,2.1,2.4,2.1,3.9v4.6C219.2,217.1,218.3,217.8,217.1,217.1z"/>
					<path class="st32" d="M178.9,193c-1.1-0.7-2.1-2.4-2.1-3.9v-4.6c0-0.2,0-0.5,0.1-0.7l-0.1,0c-1.1-0.7-2.1,0-2.1,1.6v4.6
						c0,1.5,0.9,3.3,2.1,3.9l40.3,23.3c1,0.6,1.8,0.1,2-0.9L178.9,193z"/>
					<path class="st33" d="M204.5,204.6l-24.2-14c-0.4-0.2-0.7-0.9-0.7-1.4l0,0c0-0.5,0.3-0.8,0.7-0.5l24.2,14
						c0.4,0.2,0.7,0.9,0.7,1.4l0,0C205.2,204.6,204.9,204.9,204.5,204.6z"/>
				</g>
				<polygon class="st35" points="168.4,67.6 172.6,70 172.6,87 168.4,84.6 				"/>
				<polygon class="st35" points="168.4,94.5 172.6,96.9 172.6,114 168.4,111.5 				"/>
				<polygon class="st35" points="168.4,121.4 172.6,123.9 172.6,140.9 168.4,138.4 				"/>
				<polygon class="st35" points="168.4,148.3 172.6,150.8 172.6,167.8 168.4,165.4 				"/>
				<polygon class="st35" points="168.4,175.3 172.6,177.7 172.6,194.7 168.4,192.3 				"/>
			</g>
			<path class="st33" d="M209.3,98.6c0,0.5-0.4,0.8-0.9,0.5c-0.5-0.3-0.9-0.9-0.9-1.5c0-0.5,0.4-0.8,0.9-0.5
				C208.9,97.4,209.3,98.1,209.3,98.6z"/>
			<path class="st34" d="M212.9,100.7c0,0.5-0.4,0.8-0.9,0.5c-0.5-0.3-0.9-0.9-0.9-1.5s0.4-0.8,0.9-0.5
				C212.5,99.5,212.9,100.1,212.9,100.7z"/>
			<path class="st33" d="M216.5,102.8c0,0.5-0.4,0.8-0.9,0.5c-0.5-0.3-0.9-0.9-0.9-1.5s0.4-0.8,0.9-0.5
				C216.1,101.6,216.5,102.2,216.5,102.8z"/>
			<path class="st34" d="M209.3,125.5c0,0.5-0.4,0.8-0.9,0.5c-0.5-0.3-0.9-0.9-0.9-1.5c0-0.5,0.4-0.8,0.9-0.5
				C208.9,124.3,209.3,125,209.3,125.5z"/>
			<path class="st33" d="M212.9,127.6c0,0.5-0.4,0.8-0.9,0.5c-0.5-0.3-0.9-0.9-0.9-1.5c0-0.5,0.4-0.8,0.9-0.5
				C212.5,126.4,212.9,127.1,212.9,127.6z"/>
			<path class="st2" d="M216.5,129.7c0,0.5-0.4,0.8-0.9,0.5c-0.5-0.3-0.9-0.9-0.9-1.5c0-0.5,0.4-0.8,0.9-0.5
				C216.1,128.5,216.5,129.1,216.5,129.7z"/>
			<path class="st2" d="M209.3,152.6c0,0.5-0.4,0.8-0.9,0.5c-0.5-0.3-0.9-0.9-0.9-1.5c0-0.5,0.4-0.8,0.9-0.5
				C208.9,151.4,209.3,152.1,209.3,152.6z"/>
			<path class="st34" d="M212.9,154.7c0,0.5-0.4,0.8-0.9,0.5c-0.5-0.3-0.9-0.9-0.9-1.5s0.4-0.8,0.9-0.5
				C212.5,153.5,212.9,154.2,212.9,154.7z"/>
			<path class="st2" d="M216.5,156.8c0,0.5-0.4,0.8-0.9,0.5c-0.5-0.3-0.9-0.9-0.9-1.5s0.4-0.8,0.9-0.5
				C216.1,155.6,216.5,156.2,216.5,156.8z"/>
			<path class="st2" d="M209.3,179.3c0,0.5-0.4,0.8-0.9,0.5c-0.5-0.3-0.9-0.9-0.9-1.5s0.4-0.8,0.9-0.5
				C208.9,178.1,209.3,178.8,209.3,179.3z"/>
			<path class="st33" d="M212.9,181.4c0,0.5-0.4,0.8-0.9,0.5c-0.5-0.3-0.9-0.9-0.9-1.5s0.4-0.8,0.9-0.5
				C212.5,180.2,212.9,180.9,212.9,181.4z"/>
			<path class="st33" d="M216.5,183.5c0,0.5-0.4,0.8-0.9,0.5c-0.5-0.3-0.9-0.9-0.9-1.5c0-0.5,0.4-0.8,0.9-0.5
				C216.1,182.3,216.5,183,216.5,183.5z"/>
			<path class="st2" d="M209.3,206.4c0,0.5-0.4,0.8-0.9,0.5c-0.5-0.3-0.9-0.9-0.9-1.5c0-0.5,0.4-0.8,0.9-0.5
				C208.9,205.2,209.3,205.9,209.3,206.4z"/>
			<path class="st34" d="M212.9,208.5c0,0.5-0.4,0.8-0.9,0.5c-0.5-0.3-0.9-0.9-0.9-1.5s0.4-0.8,0.9-0.5
				C212.5,207.3,212.9,208,212.9,208.5z"/>
			<path class="st33" d="M216.5,210.6c0,0.5-0.4,0.8-0.9,0.5c-0.5-0.3-0.9-0.9-0.9-1.5s0.4-0.8,0.9-0.5
				C216.1,209.4,216.5,210,216.5,210.6z"/>
			<g>
				<path class="st30" d="M235,218.4V97.9l0.2-0.1l50.3-29.1v120.4l-0.2,0.1L235,218.4z M236,98.5v118.1l48.6-28.1V70.5L236,98.5z"
					/>
			</g>
			<g>
				<path class="st30" d="M272.5,122.9l-22.6,13c-1.5,0.9-2.7-0.1-2.7-2.1v-12.5c0-2,1.2-4.4,2.7-5.2l22.6-13
					c1.5-0.9,2.7,0.1,2.7,2.1v12.5C275.2,119.7,274,122,272.5,122.9z"/>
				<path class="st27" d="M273,102.8c0.1,0.3,0.2,0.8,0.2,1.3v12.5c0,2-1.2,4.4-2.7,5.2l-22.6,13c-0.2,0.1-0.4,0.2-0.5,0.2
					c0.4,1.1,1.4,1.5,2.5,0.8l22.6-13c1.5-0.9,2.7-3.2,2.7-5.2v-12.5C275.2,103.4,274.3,102.5,273,102.8z"/>
				<g>
					<g>
						<path class="st2" d="M268.4,115.4c0.4-0.2,0.8,0,0.8,0.4v2.9c0,0.5-0.3,1.1-0.8,1.3c-0.4,0.2-0.8,0-0.8-0.4v-2.9
							C267.6,116.2,268,115.6,268.4,115.4z"/>
						<path class="st33" d="M265.1,117.6c0.4-0.2,0.8,0,0.8,0.4v2.5c0,0.5-0.3,1.1-0.8,1.3c-0.4,0.2-0.8,0-0.8-0.4v-2.5
							C264.4,118.4,264.7,117.8,265.1,117.6z"/>
						<path class="st34" d="M261.9,116.7c0.4-0.2,0.8,0,0.8,0.4v5.3c0,0.5-0.3,1.1-0.8,1.3c-0.4,0.2-0.8,0-0.8-0.4V118
							C261.1,117.5,261.5,116.9,261.9,116.7z"/>
						<path class="st33" d="M258.7,115.5c0.4-0.2,0.8,0,0.8,0.4v8.3c0,0.5-0.3,1.1-0.8,1.3c-0.4,0.2-0.8,0-0.8-0.4v-8.3
							C257.9,116.3,258.2,115.8,258.7,115.5z"/>
						<path class="st33" d="M255.4,118.3c0.4-0.2,0.8,0,0.8,0.4v7.4c0,0.5-0.3,1.1-0.8,1.3c-0.4,0.2-0.8,0-0.8-0.4v-7.4
							C254.7,119.1,255,118.5,255.4,118.3z"/>
						<path class="st2" d="M252.2,123.5c0.4-0.2,0.8,0,0.8,0.4v4c0,0.5-0.3,1.1-0.8,1.3s-0.8,0-0.8-0.4v-4
							C251.4,124.4,251.8,123.8,252.2,123.5z"/>
					</g>
					<path class="st34" d="M267.6,113.9c0,0.5,0.3,0.7,0.7,0.4c0.4-0.2,0.7-0.8,0.7-1.3s-0.3-0.7-0.7-0.4
						C268,112.9,267.6,113.5,267.6,113.9z"/>
					<path class="st2" d="M267.6,111.3c0,0.5,0.3,0.7,0.7,0.4s0.7-0.8,0.7-1.3s-0.3-0.7-0.7-0.4S267.6,110.8,267.6,111.3z"/>
				</g>
			</g>
		</g>
	</g>
</g>
<rect x="350.8" y="46.6" class="st2" width="3.4" height="66.6"/>
<g>
	<path class="st12" d="M222.2,325.6l-34.5-19.9c-2.1-1.2-1.9-3.4,0.6-4.8l33.3-19.2c2.4-1.4,6.1-1.6,8.3-0.3l34.5,19.9
		c2.1,1.2,1.9,3.4-0.6,4.8l-33.3,19.2C228.1,326.7,224.4,326.8,222.2,325.6z"/>
	<path class="st2" d="M225.9,317.5c-1.7,0-3.3-0.4-4.6-1.1h0l-34.5-19.9c-1.5-0.9-2.4-2.3-2.4-3.8c0-1.7,1.1-3.3,3-4.4l33.3-19.2
		c3.1-1.8,7.5-1.9,10.2-0.3l34.5,19.9c1.5,0.9,2.4,2.3,2.4,3.8c0,1.7-1.1,3.3-3,4.4L231.5,316C229.8,317,227.8,317.5,225.9,317.5z
		 M223.2,313c1.5,0.9,4.5,0.7,6.3-0.3l33.3-19.2c0.8-0.5,1-0.9,1-1c0,0-0.1-0.2-0.4-0.4l-34.5-19.9c-1.5-0.9-4.5-0.7-6.3,0.3
		l-33.3,19.2c-0.8,0.5-1,0.9-1,1c0,0,0.1,0.2,0.4,0.4L223.2,313L223.2,313z"/>
	<path class="st31" d="M265.8,280.2L265.8,280.2v-11.9l-26.7,0l-9.2-5.3c-2.1-1.2-5.8-1.1-8.3,0.3l-8.6,5l-26.7,0v12.2
		c-0.1,0.8,0.4,1.6,1.4,2.2l34.5,19.9c2.1,1.2,5.8,1.1,8.3-0.3l33.3-19.2C265.2,282.2,265.9,281.2,265.8,280.2z"/>
	<radialGradient id="SVGID_17_" cx="188.5013" cy="264.7683" r="43.6226" gradientUnits="userSpaceOnUse">
		<stop  offset="0" style="stop-color:#699DD1"/>
		<stop  offset="0.2662" style="stop-color:#6396CC"/>
		<stop  offset="0.6412" style="stop-color:#5184BD"/>
		<stop  offset="1" style="stop-color:#396CAA"/>
	</radialGradient>
	<path class="st36" d="M226.1,262.1c-1.6,0-3.2,0.4-4.4,1.2l-8.6,5l-26.7,0v12.2c-0.1,0.8,0.4,1.6,1.4,2.2l34.5,19.9
		c1,0.6,2.4,0.9,3.8,0.8V262.1z"/>
	<path class="st33" d="M189.3,268.2l-3,0v12.2c-0.1,0.8,0.4,1.6,1.4,2.2l1.6,0.9V268.2z"/>
	<path class="st27" d="M222.8,302.9c1.8,0.8,4.5,0.7,6.6-0.1v-13.9h-6.6V302.9z"/>
	<linearGradient id="SVGID_18_" gradientUnits="userSpaceOnUse" x1="196.7347" y1="250.7821" x2="265.0654" y2="291.5199">
		<stop  offset="0" style="stop-color:#D4ECFF"/>
		<stop  offset="0.2009" style="stop-color:#D0EAFE"/>
		<stop  offset="0.3874" style="stop-color:#C5E2F9"/>
		<stop  offset="0.5682" style="stop-color:#B2D6F2"/>
		<stop  offset="0.7444" style="stop-color:#98C4E7"/>
		<stop  offset="0.8423" style="stop-color:#86B8E0"/>
	</linearGradient>
	<path class="st37" d="M222.2,290.4l-34.5-19.9c-2.1-1.2-1.9-3.4,0.6-4.8l33.3-19.2c2.4-1.4,6.1-1.6,8.3-0.3l34.5,19.9
		c2.1,1.2,1.9,3.4-0.6,4.8l-33.3,19.2C228.1,291.5,224.4,291.6,222.2,290.4z"/>
	<path class="st2" d="M263.8,268.5l-33.3,19.2c-2.4,1.4-6.1,1.6-8.3,0.3l-34.5-19.9c-0.5-0.3-0.8-0.6-1.1-0.9
		c-0.7,1.2-0.4,2.4,1.1,3.3l34.5,19.9c2.1,1.2,5.8,1.1,8.3-0.3l33.3-19.2c1.9-1.1,2.5-2.6,1.7-3.8
		C265.2,267.5,264.6,268,263.8,268.5z"/>
	<g>
		<path class="st33" d="M253.2,283.3c0,0.9-0.6,2-1.4,2.4c-0.8,0.4-1.4,0.1-1.4-0.8c0-0.9,0.6-2,1.4-2.4
			C252.5,282.1,253.2,282.4,253.2,283.3z"/>
		<path class="st33" d="M257.6,280.7c0,0.9-0.6,2-1.4,2.4s-1.4,0.1-1.4-0.8c0-0.9,0.6-2,1.4-2.4C257,279.5,257.6,279.8,257.6,280.7z
			"/>
		<path class="st33" d="M262.1,278.1c0,0.9-0.6,2-1.4,2.4c-0.8,0.4-1.4,0.1-1.4-0.8c0-0.9,0.6-2,1.4-2.4
			C261.5,276.9,262.1,277.3,262.1,278.1z"/>
	</g>
	<g>
		<path class="st27" d="M224.3,278.1l-16.1-9.3c-1-0.6-0.9-1.6,0.3-2.2l15.6-9c1.1-0.7,2.9-0.7,3.9-0.2l16.1,9.3
			c1,0.6,0.9,1.6-0.3,2.2l-15.6,9C227,278.6,225.3,278.6,224.3,278.1z"/>
		<path class="st33" d="M225.8,270.3l-2.2-1.3c-0.1-0.1-0.1-0.2,0-0.3l2.2-1.2c0.2-0.1,0.4-0.1,0.5,0l2.2,1.3c0.1,0.1,0.1,0.2,0,0.3
			l-2.2,1.2C226.2,270.3,226,270.3,225.8,270.3z"/>
		<path class="st31" d="M208.1,268.7L208.1,268.7c0.1,0,0.2-0.1,0.3-0.1l15.6-9c1.1-0.7,2.9-0.7,3.9-0.2l16.1,9.3
			c0.9-0.7,1-1.5,0-2.1l-16.1-9.3c-1-0.6-2.7-0.5-3.9,0.2l-15.6,9C207.3,267.2,207.1,268.2,208.1,268.7z"/>
	</g>
</g>
<g>
	<path class="st12" d="M348.7,237.7l-34.5-19.9c-2.1-1.2-1.9-3.4,0.6-4.8l33.3-19.2c2.4-1.4,6.1-1.6,8.3-0.3l34.5,19.9
		c2.1,1.2,1.9,3.4-0.6,4.8L357,237.3C354.5,238.7,350.8,238.9,348.7,237.7z"/>
	<path class="st2" d="M352.3,229.6c-1.7,0-3.3-0.4-4.6-1.1h0l-34.5-19.9c-1.5-0.9-2.4-2.3-2.4-3.8c0-1.7,1.1-3.3,3-4.4l33.3-19.2
		c3.1-1.8,7.5-1.9,10.2-0.3l34.5,19.9c1.5,0.9,2.4,2.3,2.4,3.8c0,1.7-1.1,3.3-3,4.4L358,228.1C356.3,229.1,354.3,229.6,352.3,229.6z
		 M349.7,225.1c1.5,0.9,4.5,0.7,6.3-0.3l33.3-19.2c0.8-0.5,1-0.9,1-1c0,0-0.1-0.2-0.4-0.4l-34.5-19.9c-1.5-0.9-4.5-0.7-6.3,0.3
		l-33.3,19.2c-0.8,0.5-1,0.9-1,1c0,0,0.1,0.2,0.4,0.4L349.7,225.1L349.7,225.1z"/>
	<path class="st31" d="M392.3,192.3L392.3,192.3v-11.9l-26.7,0l-9.2-5.3c-2.1-1.2-5.8-1.1-8.3,0.3l-8.6,5l-26.7,0v12.2
		c-0.1,0.8,0.4,1.6,1.4,2.2l34.5,19.9c2.1,1.2,5.8,1.1,8.3-0.3l33.3-19.2C391.7,194.3,392.4,193.3,392.3,192.3z"/>
	<radialGradient id="SVGID_19_" cx="314.9753" cy="176.8506" r="43.6227" gradientUnits="userSpaceOnUse">
		<stop  offset="0" style="stop-color:#699DD1"/>
		<stop  offset="0.2662" style="stop-color:#6396CC"/>
		<stop  offset="0.6412" style="stop-color:#5184BD"/>
		<stop  offset="1" style="stop-color:#396CAA"/>
	</radialGradient>
	<path class="st38" d="M352.6,174.2c-1.6,0-3.2,0.4-4.4,1.2l-8.6,5l-26.7,0v12.2c-0.1,0.8,0.4,1.6,1.4,2.2l34.5,19.9
		c1,0.6,2.4,0.9,3.8,0.8V174.2z"/>
	<path class="st33" d="M315.8,180.3l-3,0v12.2c-0.1,0.8,0.4,1.6,1.4,2.2l1.6,0.9V180.3z"/>
	<path class="st27" d="M349.3,215c1.8,0.8,4.5,0.7,6.6-0.1V201h-6.6V215z"/>
	<linearGradient id="SVGID_20_" gradientUnits="userSpaceOnUse" x1="323.2087" y1="162.8644" x2="391.5394" y2="203.6022">
		<stop  offset="0" style="stop-color:#D4ECFF"/>
		<stop  offset="0.2009" style="stop-color:#D0EAFE"/>
		<stop  offset="0.3874" style="stop-color:#C5E2F9"/>
		<stop  offset="0.5682" style="stop-color:#B2D6F2"/>
		<stop  offset="0.7444" style="stop-color:#98C4E7"/>
		<stop  offset="0.8423" style="stop-color:#86B8E0"/>
	</linearGradient>
	<path class="st39" d="M348.7,202.5l-34.5-19.9c-2.1-1.2-1.9-3.4,0.6-4.8l33.3-19.2c2.4-1.4,6.1-1.6,8.3-0.3l34.5,19.9
		c2.1,1.2,1.9,3.4-0.6,4.8L357,202.2C354.5,203.6,350.8,203.7,348.7,202.5z"/>
	<path class="st2" d="M390.3,180.6L357,199.8c-2.4,1.4-6.1,1.6-8.3,0.3l-34.5-19.9c-0.5-0.3-0.8-0.6-1.1-0.9
		c-0.7,1.2-0.4,2.4,1.1,3.3l34.5,19.9c2.1,1.2,5.8,1.1,8.3-0.3l33.3-19.2c1.9-1.1,2.5-2.6,1.7-3.8
		C391.6,179.6,391.1,180.1,390.3,180.6z"/>
	<g>
		<path class="st33" d="M379.6,195.4c0,0.9-0.6,2-1.4,2.4c-0.8,0.4-1.4,0.1-1.4-0.8c0-0.9,0.6-2,1.4-2.4
			C379,194.2,379.6,194.5,379.6,195.4z"/>
		<path class="st33" d="M384.1,192.8c0,0.9-0.6,2-1.4,2.4c-0.8,0.4-1.4,0.1-1.4-0.8s0.6-2,1.4-2.4
			C383.5,191.6,384.1,191.9,384.1,192.8z"/>
		<path class="st33" d="M388.6,190.2c0,0.9-0.6,2-1.4,2.4c-0.8,0.4-1.4,0.1-1.4-0.8c0-0.9,0.6-2,1.4-2.4
			C388,189,388.6,189.3,388.6,190.2z"/>
	</g>
	<g>
		<path class="st27" d="M350.8,190.1l-16.2-9.3c-1-0.6-0.9-1.6,0.3-2.2l15.6-9c1.1-0.7,2.9-0.7,3.9-0.2l16.1,9.3
			c1,0.6,0.9,1.6-0.3,2.2l-15.6,9C353.5,190.6,351.8,190.7,350.8,190.1z"/>
		<path class="st33" d="M352.3,182.3l-2.2-1.3c-0.1-0.1-0.1-0.2,0-0.3l2.2-1.2c0.2-0.1,0.4-0.1,0.5,0l2.2,1.3c0.1,0.1,0.1,0.2,0,0.3
			l-2.2,1.2C352.7,182.4,352.4,182.4,352.3,182.3z"/>
		<path class="st31" d="M334.6,180.8L334.6,180.8c0.1,0,0.2-0.1,0.3-0.1l15.6-9c1.1-0.7,2.9-0.7,3.9-0.2l16.1,9.3
			c0.9-0.7,1-1.5,0-2.1l-16.1-9.3c-1-0.6-2.7-0.5-3.9,0.2l-15.6,9C333.7,179.2,333.6,180.2,334.6,180.8z"/>
	</g>
</g>
<g>
	<path class="st12" d="M95.8,237.7l-34.5-19.9c-2.1-1.2-1.9-3.4,0.6-4.8l33.3-19.2c2.4-1.4,6.1-1.6,8.3-0.3l34.5,19.9
		c2.1,1.2,1.9,3.4-0.6,4.8L104,237.3C101.6,238.7,97.9,238.9,95.8,237.7z"/>
	<path class="st2" d="M99.4,229.6c-1.7,0-3.3-0.4-4.6-1.1h0l-34.5-19.9c-1.5-0.9-2.4-2.3-2.4-3.8c0-1.7,1.1-3.3,3-4.4l33.3-19.2
		c3.1-1.8,7.5-1.9,10.2-0.3l34.5,19.9c1.5,0.9,2.4,2.3,2.4,3.8c0,1.7-1.1,3.3-3,4.4L105,228.1C103.4,229.1,101.3,229.6,99.4,229.6z
		 M96.8,225.1c1.5,0.9,4.5,0.7,6.3-0.3l33.3-19.2c0.8-0.5,1-0.9,1-1c0,0-0.1-0.2-0.4-0.4l-34.5-19.9c-1.5-0.9-4.5-0.7-6.3,0.3
		l-33.3,19.2c-0.8,0.5-1,0.9-1,1c0,0,0.1,0.2,0.4,0.4L96.8,225.1L96.8,225.1z"/>
	<path class="st31" d="M139.4,192.3L139.4,192.3v-11.9l-26.7,0l-9.2-5.3c-2.1-1.2-5.8-1.1-8.3,0.3l-8.6,5l-26.7,0v12.2
		c-0.1,0.8,0.4,1.6,1.4,2.2l34.5,19.9c2.1,1.2,5.8,1.1,8.3-0.3l33.3-19.2C138.8,194.3,139.5,193.3,139.4,192.3z"/>
	<radialGradient id="SVGID_21_" cx="62.0331" cy="176.8506" r="43.6227" gradientUnits="userSpaceOnUse">
		<stop  offset="0" style="stop-color:#699DD1"/>
		<stop  offset="0.2662" style="stop-color:#6396CC"/>
		<stop  offset="0.6412" style="stop-color:#5184BD"/>
		<stop  offset="1" style="stop-color:#396CAA"/>
	</radialGradient>
	<path class="st40" d="M99.6,174.2c-1.6,0-3.2,0.4-4.4,1.2l-8.6,5l-26.7,0v12.2c-0.1,0.8,0.4,1.6,1.4,2.2l34.5,19.9
		c1,0.6,2.4,0.9,3.8,0.8V174.2z"/>
	<path class="st33" d="M62.9,180.3l-3,0v12.2c-0.1,0.8,0.4,1.6,1.4,2.2l1.6,0.9V180.3z"/>
	<path class="st27" d="M96.3,215c1.8,0.8,4.5,0.7,6.6-0.1V201h-6.6V215z"/>
	<linearGradient id="SVGID_22_" gradientUnits="userSpaceOnUse" x1="70.2665" y1="162.8644" x2="138.5972" y2="203.6022">
		<stop  offset="0" style="stop-color:#D4ECFF"/>
		<stop  offset="0.2009" style="stop-color:#D0EAFE"/>
		<stop  offset="0.3874" style="stop-color:#C5E2F9"/>
		<stop  offset="0.5682" style="stop-color:#B2D6F2"/>
		<stop  offset="0.7444" style="stop-color:#98C4E7"/>
		<stop  offset="0.8423" style="stop-color:#86B8E0"/>
	</linearGradient>
	<path class="st41" d="M95.8,202.5l-34.5-19.9c-2.1-1.2-1.9-3.4,0.6-4.8l33.3-19.2c2.4-1.4,6.1-1.6,8.3-0.3l34.5,19.9
		c2.1,1.2,1.9,3.4-0.6,4.8L104,202.2C101.6,203.6,97.9,203.7,95.8,202.5z"/>
	<path class="st2" d="M137.4,180.6L104,199.8c-2.4,1.4-6.1,1.6-8.3,0.3l-34.5-19.9c-0.5-0.3-0.8-0.6-1.1-0.9
		c-0.7,1.2-0.4,2.4,1.1,3.3l34.5,19.9c2.1,1.2,5.8,1.1,8.3-0.3l33.3-19.2c1.9-1.1,2.5-2.6,1.7-3.8
		C138.7,179.6,138.1,180.1,137.4,180.6z"/>
	<g>
		<path class="st33" d="M126.7,195.4c0,0.9-0.6,2-1.4,2.4c-0.8,0.4-1.4,0.1-1.4-0.8c0-0.9,0.6-2,1.4-2.4
			C126.1,194.2,126.7,194.5,126.7,195.4z"/>
		<path class="st33" d="M131.2,192.8c0,0.9-0.6,2-1.4,2.4c-0.8,0.4-1.4,0.1-1.4-0.8s0.6-2,1.4-2.4
			C130.5,191.6,131.2,191.9,131.2,192.8z"/>
		<path class="st33" d="M135.7,190.2c0,0.9-0.6,2-1.4,2.4c-0.8,0.4-1.4,0.1-1.4-0.8c0-0.9,0.6-2,1.4-2.4
			C135,189,135.7,189.3,135.7,190.2z"/>
	</g>
	<g>
		<path class="st27" d="M97.8,190.1l-16.1-9.3c-1-0.6-0.9-1.6,0.3-2.2l15.6-9c1.1-0.7,2.9-0.7,3.9-0.2l16.1,9.3
			c1,0.6,0.9,1.6-0.3,2.2l-15.6,9C100.5,190.6,98.8,190.7,97.8,190.1z"/>
		<path class="st33" d="M99.4,182.3l-2.2-1.3c-0.1-0.1-0.1-0.2,0-0.3l2.2-1.2c0.2-0.1,0.4-0.1,0.5,0l2.2,1.3c0.1,0.1,0.1,0.2,0,0.3
			l-2.2,1.2C99.7,182.4,99.5,182.4,99.4,182.3z"/>
		<path class="st31" d="M81.7,180.8L81.7,180.8c0.1,0,0.2-0.1,0.3-0.1l15.6-9c1.1-0.7,2.9-0.7,3.9-0.2l16.1,9.3c0.9-0.7,1-1.5,0-2.1
			l-16.1-9.3c-1-0.6-2.7-0.5-3.9,0.2l-15.6,9C80.8,179.2,80.7,180.2,81.7,180.8z"/>
	</g>
</g>
</svg>
