<svg height="512pt" viewBox="0 -28 512.00212 512" width="512pt" xmlns="http://www.w3.org/2000/svg"><path d="m454.871094 167.875c7.023437-13.425781 5.054687-30.546875-5.925782-41.890625-8.433593-8.714844-20.171874-11.933594-31.050781-9.671875-11.828125-38.273438-46.527343-65.992188-87.496093-65.992188-3.609376 0-7.167969.222657-10.667969.640626-16.949219-26.253907-45.875-43.554688-78.714844-43.554688-44.941406 0-82.554687 32.390625-92.171875 75.808594-21.628906-5.875-45.484375 2.121094-59.351562 21.984375-6.324219 9.058593-9.71875 19.378906-10.390626 29.761719-.046874 0-.09375-.003907-.136718-.003907-39.46875 0-71.460938 33.054688-71.460938 73.828125 0 40.773438 31.992188 73.828125 71.460938 73.828125 8.609375 0 16.867187-1.578125 24.511718-4.460937 1.710938 2.96875 3.796876 5.769531 6.273438 8.324218 15.96875 16.5 41.824219 16.554688 57.871094.175782 17.335937 22.027344 43.773437 36.101562 73.394531 36.101562 32.226563 0 60.679687-16.660156 77.75-42.09375 2.390625 4.839844 5.535156 9.382813 9.457031 13.433594 20.105469 20.769531 52.703125 20.769531 72.804688 0 6.632812-6.847656 11.0625-15.105469 13.316406-23.835938 9.484375 7.730469 21.445312 12.355469 34.460938 12.355469 30.761718 0 55.695312-25.761719 55.695312-57.542969.003906-29.660156-21.722656-54.074218-49.628906-57.195312zm0 0" fill="#575d60"/><path d="m454.871094 167.875c7.023437-13.425781 5.054687-30.546875-5.925782-41.890625-8.4375-8.714844-20.171874-11.933594-31.050781-9.671875-11.828125-38.273438-46.527343-65.992188-87.496093-65.992188-3.609376 0-7.167969.222657-10.667969.640626-16.949219-26.253907-45.875-43.554688-78.714844-43.554688-11.046875 0-21.644531 1.964844-31.5 5.5625 19.441406 7.097656 35.964844 20.570312 47.214844 37.992188 3.5-.417969 7.058593-.640626 10.667969-.640626 40.96875 0 75.667968 27.71875 87.496093 65.992188 10.878907-2.261719 22.613281.957031 31.050781 9.671875 10.980469 11.34375 12.949219 28.464844 5.925782 41.890625 27.90625 3.125 49.632812 27.535156 49.632812 57.195312 0 19.691407-9.582031 37.066407-24.183594 47.441407 8.957032 6.359375 19.792969 10.101562 31.484376 10.101562 30.761718 0 55.699218-25.761719 55.699218-57.542969 0-29.660156-21.726562-54.074218-49.632812-57.195312zm0 0" fill="#464c50"/><path d="m110.390625 350.191406c0 19.851563-16.09375 35.941406-35.945313 35.941406-19.847656 0-35.941406-16.089843-35.941406-35.941406 0-19.851562 16.09375-35.941406 35.941406-35.941406 19.851563 0 35.945313 16.089844 35.945313 35.941406zm0 0" fill="#d8d8d8"/><path d="m465.671875 347.15625c0 15.097656-12.238281 27.332031-27.332031 27.332031-15.097656 0-27.335938-12.234375-27.335938-27.332031 0-15.09375 12.238282-27.332031 27.335938-27.332031 15.09375 0 27.332031 12.238281 27.332031 27.332031zm0 0" fill="#e7eced"/><path d="m347.40625 428.261719c0 11.265625-9.132812 20.402343-20.402344 20.402343-11.265625 0-20.402344-9.136718-20.402344-20.402343 0-11.269531 9.136719-20.40625 20.402344-20.40625 11.269532 0 20.402344 9.136719 20.402344 20.40625zm0 0" fill="#d8d8d8"/><path d="m239.917969 390.488281c0 14.902344-12.082031 26.984375-26.984375 26.984375s-26.984375-12.082031-26.984375-26.984375c0-14.902343 12.082031-26.980469 26.984375-26.980469s26.984375 12.078126 26.984375 26.980469zm0 0" fill="#e7eced"/><path d="m171.292969 142.011719c16.984375 0 19.410156 11.375 19.714843 17.441406.148438 2.730469 2.273438 4.398437 6.367188 4.398437 4.246094 0 6.367188-1.214843 6.367188-6.976562 0-14.863281-12.433594-26.386719-32.753907-26.386719-17.742187 0-32.605469 8.945313-32.605469 33.058594v45.644531c0 24.113282 14.710938 33.0625 32.453126 33.0625 20.320312 0 32.910156-11.832031 32.910156-26.84375 0-5.761718-2.125-7.128906-6.371094-7.128906-3.789062 0-6.066406 1.367188-6.367188 4.398438-.910156 7.128906-2.425781 18.046874-19.261718 18.046874-13.496094 0-20.621094-6.824218-20.621094-21.535156v-45.644531c-.003906-14.710937 7.125-21.535156 20.167969-21.535156zm0 0"/><path d="m217.542969 163.546875v45.644531c0 24.113282 14.253906 33.0625 32.601562 33.0625 18.351563 0 32.757813-8.949218 32.757813-33.0625v-45.644531c0-24.113281-14.40625-33.058594-32.757813-33.058594-18.347656 0-32.601562 8.945313-32.601562 33.058594zm52.621093 0v45.644531c0 14.710938-7.582031 21.535156-20.015624 21.535156-12.4375 0-19.867188-6.824218-19.867188-21.535156v-45.644531c0-14.710937 7.429688-21.535156 19.867188-21.535156 12.433593 0 20.015624 6.824219 20.015624 21.535156zm0 0"/><path d="m296.09375 222.082031v14.710938c0 2.730469 3.335938 4.550781 5.761719 4.550781h53.984375c2.425781 0 4.398437-2.882812 4.398437-5.761719 0-3.1875-1.972656-5.765625-4.398437-5.765625h-46.554688v-7.734375c0-18.953125 50.042969-29.417969 50.042969-62.023437 0-17.136719-13.648437-29.570313-31.238281-29.570313-16.226563 0-29.570313 10.613281-29.570313 25.929688 0 5.613281 2.121094 7.433593 5.761719 7.433593 4.246094 0 6.671875-2.425781 6.671875-5.003906 0-11.222656 7.429687-16.53125 17.136719-16.53125 12.738281 0 18.5 9.554688 18.5 18.199219 0 25.019531-50.496094 36.699219-50.496094 61.566406zm0 0"/><path d="m36.484375 159.289062c11.3125-10.480468 26.246094-16.84375 42.726563-16.84375 3.953124 0 7.226562-3.070312 7.480468-7.011718 1.96875-30.355469 30.085938-53.183594 60.277344-44.984375 4.128906 1.121093 8.363281-1.433594 9.289062-5.613281 4.335938-19.585938 15.101563-37.355469 30.308594-50.035157 39.847656-33.21875 98.523438-23.738281 126.914063 20.234375 1.554687 2.410156 4.351562 3.714844 7.191406 3.378906 15.207031-1.824218 30.597656.566407 44.742187 7.253907 3.738282 1.769531 8.210938.171875 9.980469-3.574219 1.773438-3.742188.171875-8.210938-3.570312-9.984375-15.101563-7.140625-31.425781-10.242187-48.328125-9.027344-49.800782-70.273437-155.6875-50.878906-180.035156 31.367188-33.71875-4.753907-65.160157 18.816406-70.949219 53.277343-17.136719 1.460938-33.347657 8.632813-46.21875 20.5625-3.039063 2.816407-3.21875 7.558594-.402344 10.597657 2.804687 3.027343 7.546875 3.226562 10.59375.402343zm0 0"/><path d="m465.089844 162.183594c7.441406-28.023438-14.066406-55.234375-42.050782-54.046875-5.28125-13.996094-13.566406-26.742188-24.1875-37.152344-2.957031-2.898437-7.707031-2.851563-10.605468.109375-2.898438 2.957031-2.847656 7.703125.109375 10.601562 10.339843 10.132813 18.082031 22.863282 22.398437 36.824219 1.140625 3.691407 4.902344 5.910157 8.691406 5.125 22.414063-4.660156 39.574219 20.128907 28.796876 40.730469-2.433594 4.65625.558593 10.339844 5.808593 10.929688 24.488281 2.742187 42.953125 24.121093 42.953125 49.726562 0 41.800781-46.5625 64.90625-77.898437 39.367188-4.207031-3.433594-10.621094-1.378907-11.996094 3.933593-10.378906 40.125-63.1875 46.15625-81.570313 8.957031-2.539062-5.136718-9.722656-5.660156-12.949218-.855468-32.917969 49.046875-102.226563 52.242187-138.988282 5.53125-2.796874-3.550782-8.085937-3.839844-11.25-.609375-15.355468 15.675781-41 12.566406-52.273437-6.996094-1.835937-3.183594-5.707031-4.566406-9.144531-3.273437-53.402344 20.144531-103.285156-36.800782-80.121094-89.710938 1.664062-3.792969-.066406-8.214844-3.859375-9.875-3.796875-1.664062-8.214844.066406-9.878906 3.859375-27.257813 62.269531 28.574219 130.492187 93.4375 111.664063 16.296875 21.582031 45.730469 25.234374 66.363281 10.183593 41.652344 45.558594 112.035156 43.421875 151.355469-3.359375 27.191406 35.71875 81.488281 29.132813 99.945312-11.933594 41.503907 23.847657 93.828125-7.058593 93.828125-56.882812 0-29.925781-19.601562-55.425781-46.914062-62.847656zm0 0"/><path d="m74.558594 306.691406c-23.949219 0-43.429688 19.484375-43.429688 43.429688 0 23.949218 19.480469 43.433594 43.429688 43.433594 23.949218 0 43.429687-19.484376 43.429687-43.433594 0-23.945313-19.480469-43.429688-43.429687-43.429688zm0 71.867188c-15.679688 0-28.433594-12.757813-28.433594-28.4375 0-15.679688 12.753906-28.433594 28.433594-28.433594 15.679687 0 28.433594 12.757812 28.433594 28.433594 0 15.679687-12.753907 28.4375-28.433594 28.4375zm0 0"/><path d="m438.355469 312.265625c-19.199219 0-34.824219 15.621094-34.824219 34.824219 0 19.199218 15.625 34.824218 34.824219 34.824218 19.203125 0 34.828125-15.625 34.828125-34.824218 0-19.203125-15.625-34.824219-34.828125-34.824219zm0 54.652344c-10.929688 0-19.828125-8.894531-19.828125-19.828125s8.898437-19.828125 19.828125-19.828125c10.9375 0 19.832031 8.894531 19.832031 19.828125s-8.894531 19.828125-19.832031 19.828125zm0 0"/><path d="m327.050781 400.277344c-15.378906 0-27.894531 12.511718-27.894531 27.894531s12.515625 27.894531 27.894531 27.894531c15.382813 0 27.898438-12.511718 27.898438-27.894531s-12.515625-27.894531-27.898438-27.894531zm0 40.792968c-7.109375 0-12.898437-5.789062-12.898437-12.898437 0-7.113281 5.789062-12.898437 12.898437-12.898437 7.113281 0 12.902344 5.785156 12.902344 12.898437s-5.785156 12.898437-12.902344 12.898437zm0 0"/><path d="m213.011719 355.9375c-19.007813 0-34.476563 15.464844-34.476563 34.472656 0 19.011719 15.464844 34.476563 34.476563 34.476563 19.007812 0 34.472656-15.464844 34.472656-34.476563 0-19.007812-15.464844-34.472656-34.472656-34.472656zm0 53.953125c-10.742188 0-19.480469-8.738281-19.480469-19.480469 0-10.738281 8.738281-19.476562 19.480469-19.476562 10.738281 0 19.476562 8.738281 19.476562 19.476562 0 10.742188-8.738281 19.480469-19.476562 19.480469zm0 0"/></svg>