<svg id="Capa_1" enable-background="new 0 0 512 512" height="512" viewBox="0 0 512 512" width="512" xmlns="http://www.w3.org/2000/svg"><path d="m349.024 510.959h-11.22c-5.523 0-10-4.477-10-10v-435.398h31.22v435.398c0 5.523-4.477 10-10 10z" fill="#c6865c"/><path d="m345.496 65.561h-17.691v32.201c4.972 1.384 10.203 2.14 15.61 2.14.697 0 1.39-.014 2.081-.038v411.095h3.227c5.69 0 10.302-4.612 10.302-10.302v-402.895-32.201z" fill="#b16e3d"/><path d="m207.089 462.078v-138.436h-35.382v138.436c-6.347 5.152-10.407 13.012-10.407 21.824 0 15.518 12.58 28.098 28.098 28.098s28.098-12.58 28.098-28.098c0-8.811-4.059-16.672-10.407-21.824z" fill="#efecef"/><path d="m207.089 462.078v-113.398-25.037h-35.382v25.037c5.692 1.306 11.608 2.02 17.691 2.02 1.397 0 2.784-.042 4.163-.116v111.302c0 3.377 1.604 6.551 4.322 8.555 3.525 2.599 6.084 7.066 6.084 13.462 0 13.185-9.084 24.244-21.333 27.272 3.767.931 7.828 1.118 12.031.334 12.387-2.309 21.814-12.89 22.75-25.455.722-9.676-3.466-18.408-10.326-23.976z" fill="#e2dfe2"/><path d="m216.455 10.302v261.308c0 14.943-12.114 27.057-27.057 27.057-14.943 0-27.057-12.114-27.057-27.057v-261.308c0-5.69-4.612-10.302-10.301-10.302h-14.778c-5.69 0-10.302 4.612-10.302 10.302v261.308c0 34.484 27.955 62.439 62.439 62.439 34.484 0 62.439-27.955 62.439-62.439v-261.308c0-5.69-4.612-10.302-10.302-10.302h-14.778c-5.69 0-10.303 4.612-10.303 10.302z" fill="#efecef"/><path d="m238.309 0v271.61c0 32.198-24.373 58.695-55.675 62.068 2.223.24 4.478.371 6.764.371 34.484 0 62.439-27.955 62.439-62.439v-261.308c0-5.69-4.612-10.302-10.302-10.302z" fill="#e2dfe2"/><path d="m175.959 298.667c2.304-.007 4.54-.303 6.675-.852-11.67-3.004-20.293-13.597-20.293-26.205v-261.308c0-5.69-4.612-10.302-10.301-10.302h-3.227v270.962c0 14.933 12.213 27.753 27.146 27.705z" fill="#e2dfe2"/><circle cx="343.415" cy="41.626" fill="#595959" r="41.626"/><path d="m344.571.029c11.799 7.348 19.656 20.43 19.656 35.353 0 22.989-18.637 41.626-41.626 41.626-.388 0-.771-.019-1.157-.029 6.378 3.972 13.903 6.273 21.97 6.273 22.989 0 41.626-18.637 41.626-41.626.001-22.602-18.016-40.982-40.469-41.597z" fill="#454545"/></svg>