<svg id="Capa_1" enable-background="new 0 0 512 512" height="512" viewBox="0 0 512 512" width="512" xmlns="http://www.w3.org/2000/svg"><path d="m325.701 71.14h30.305v432.35h-30.305z" fill="#c6865c"/><path d="m342.874 71.14h-17.173v31.258c4.826 1.344 9.904 2.078 15.152 2.078.676 0 1.35-.013 2.02-.037v399.051h13.132v-401.092-31.258z" fill="#b16e3d"/><path d="m208.522 456.041v-134.38h-34.346v134.38c-6.161 5.001-10.102 12.631-10.102 21.185 0 15.063 12.211 27.274 27.274 27.274s27.274-12.211 27.274-27.274c.002-8.554-3.938-16.185-10.1-21.185z" fill="#efecef"/><path d="m208.522 456.041v-110.077-24.304h-34.346v24.304c5.525 1.268 11.268 1.96 17.173 1.96 1.356 0 2.702-.041 4.041-.112v108.042c0 3.278 1.557 6.359 4.196 8.305 3.422 2.522 5.906 6.859 5.906 13.067 0 12.799-8.818 23.534-20.708 26.474 3.657.904 7.599 1.085 11.679.325 12.024-2.242 21.175-12.512 22.084-24.709.699-9.395-3.366-17.871-10.025-23.275z" fill="#e2dfe2"/><path d="m217.614 7.5v263.652c0 14.505-11.759 26.264-26.264 26.264-14.505 0-26.264-11.759-26.264-26.264v-263.652h-34.346v263.652c0 33.474 27.136 60.61 60.61 60.61 33.474 0 60.61-27.136 60.61-60.61v-263.652z" fill="#efecef"/><path d="m238.827 7.5v263.652c0 31.254-23.659 56.976-54.044 60.25 2.158.233 4.347.36 6.566.36 33.474 0 60.61-27.136 60.61-60.61v-263.652z" fill="#e2dfe2"/><path d="m178.217 297.417c2.267 0 4.467-.287 6.566-.827-11.328-2.916-19.698-13.199-19.698-25.437v-263.653h-13.132v263.652c0 14.506 11.759 26.265 26.264 26.265z" fill="#e2dfe2"/><circle cx="340.854" cy="47.907" fill="#595959" r="40.407"/><path d="m341.976 7.528c11.453 7.133 19.081 19.831 19.081 34.317 0 22.316-18.091 40.406-40.407 40.406-.377 0-.749-.018-1.123-.028 6.191 3.855 13.496 6.089 21.326 6.089 22.316 0 40.406-18.091 40.406-40.407.001-21.938-17.487-39.78-39.283-40.377z" fill="#454545"/><path d="m251.959 0h-34.346c-4.142 0-7.5 3.358-7.5 7.5v263.652c0 10.347-8.417 18.764-18.764 18.764s-18.764-8.417-18.764-18.764v-263.652c0-4.142-3.358-7.5-7.5-7.5h-34.345c-4.142 0-7.5 3.358-7.5 7.5v85.063c0 4.142 3.358 7.5 7.5 7.5s7.5-3.358 7.5-7.5v-77.563h19.346v256.152c0 18.618 15.146 33.764 33.764 33.764s33.764-15.146 33.764-33.764v-256.152h19.346v256.152c0 29.285-23.825 53.11-53.11 53.11s-53.11-23.825-53.11-53.11v-143.694c0-4.142-3.358-7.5-7.5-7.5s-7.5 3.358-7.5 7.5v143.694c0 28.855 18.046 53.559 43.437 63.465v118.106c-6.46 6.49-10.102 15.233-10.102 24.502 0 19.175 15.6 34.774 34.774 34.774s34.774-15.6 34.774-34.774c0-9.269-3.642-18.012-10.102-24.502v-45.161c0-4.142-3.358-7.5-7.5-7.5s-7.5 3.358-7.5 7.5v48.479c0 2.26 1.019 4.399 2.773 5.823 4.657 3.78 7.328 9.379 7.328 15.361 0 10.904-8.871 19.774-19.774 19.774s-19.774-8.871-19.774-19.774c0-5.982 2.671-11.582 7.328-15.361 1.754-1.424 2.773-3.563 2.773-5.823v-117.478c3.162.452 6.388.699 9.673.699s6.511-.247 9.673-.699v33.916c0 4.142 3.358 7.5 7.5 7.5s7.5-3.358 7.5-7.5v-37.861c25.391-9.906 43.437-34.61 43.437-63.465v-263.653c.001-4.142-3.356-7.5-7.499-7.5z"/><path d="m388.76 47.907c0-26.416-21.49-47.907-47.906-47.907s-47.906 21.491-47.906 47.907c0 18.226 10.233 34.104 25.253 42.199v413.384c0 4.142 3.358 7.5 7.5 7.5h30.31c4.142 0 7.5-3.358 7.5-7.5v-275.927c0-4.142-3.358-7.5-7.5-7.5s-7.5 3.358-7.5 7.5v268.427h-15.311v-400.796c2.493.402 5.048.619 7.653.619 2.606 0 5.162-.217 7.656-.619v97.275c0 4.142 3.358 7.5 7.5 7.5s7.5-3.358 7.5-7.5v-102.364c15.02-8.096 25.251-23.974 25.251-42.198zm-47.906 32.906c-18.145 0-32.906-14.762-32.906-32.906 0-18.145 14.762-32.907 32.906-32.907 18.145 0 32.907 14.762 32.907 32.907-.001 18.144-14.762 32.906-32.907 32.906z"/></svg>